<svg width="373" height="407" viewBox="0 0 373 407" fill="none" xmlns="http://www.w3.org/2000/svg">
<g clip-path="url(#clip0_1_434)">
<path d="M218.956 385.984L184.278 407L149.935 385.534C80.6846 342.251 41.9247 284.19 41.9247 223.732V167.165H331.079V221.647C331.079 283.338 290.726 342.481 218.956 385.98V385.984Z" fill="#091A1D"/>
<path d="M157.773 372.953C125.103 352.534 99.6968 328.939 82.2703 302.83C65.323 277.444 56.7329 250.832 56.7329 223.732V181.997H316.274V221.651C316.274 249.311 307.336 276.434 289.707 302.273C280.827 315.29 269.754 327.865 256.798 339.656C243.562 351.7 228.251 363.017 211.293 373.297L184.4 389.596L157.776 372.956L157.773 372.953Z" fill="#669940"/>
<path d="M124.505 359.003L89.4703 327.5V232.664H124.505V359.003Z" fill="#FCCD0E"/>
<path d="M244.051 359.003L279.086 327.5V232.664H244.051V359.003Z" fill="#FCCD0E"/>
<path d="M203.155 232.664H166.666V393.452H203.155V232.664Z" fill="#FCCD0E"/>
<path d="M94.3187 232.664H80.3371V321.637H94.3187V232.664Z" fill="#222916"/>
<path d="M133.99 232.664H120.008V359.006H133.99V232.664Z" fill="#222916"/>
<path d="M173.657 232.664H159.675V389.596H173.657V232.664Z" fill="#222916"/>
<path d="M213.325 232.664H199.343V383.919H213.325V232.664Z" fill="#222916"/>
<path d="M252.995 232.664H239.014V359.006H252.995V232.664Z" fill="#222916"/>
<path d="M292.663 232.664H278.681V318.937H292.663V232.664Z" fill="#222916"/>
<g style="mix-blend-mode:overlay" opacity="0.5">
<path d="M318.639 245.648V260.48H275.517L263.107 272.909H110.682L103.212 265.427L98.273 260.48H53.3219V245.648H318.639Z" fill="#090909"/>
</g>
<path d="M41.9247 167.165V223.732C41.9247 284.19 80.6846 342.251 149.935 385.534L184.278 407L218.956 385.984C290.723 342.484 331.079 283.341 331.079 221.651V167.168H41.9247V167.165ZM316.27 221.651C316.27 249.311 307.333 276.434 289.704 302.273C280.824 315.29 269.75 327.865 256.794 339.656C243.558 351.7 228.248 363.017 211.29 373.297L184.396 389.596L157.773 372.956C125.103 352.538 99.6968 328.943 82.2703 302.834C65.323 277.448 56.7329 250.835 56.7329 223.736V182H316.274V221.654L316.27 221.651Z" fill="#222916"/>
<path d="M344.983 233.614V171.291L360.847 155.401H344.983V144.753H28.8068V155.401H12.153L28.8068 172.078V232.826L12.153 249.504H102.811L115.22 261.933H258.569L270.979 249.504H360.847L344.983 233.614Z" fill="#222916"/>
<path d="M140.717 244.975C140.717 245.567 140.643 246.094 140.495 246.567C140.346 247.037 140.15 247.452 139.904 247.814C139.658 248.172 139.374 248.48 139.044 248.733C138.716 248.987 138.376 249.193 138.025 249.352C137.674 249.514 137.316 249.632 136.952 249.706C136.588 249.784 136.247 249.821 135.926 249.821H124.424V246.834H135.926C136.5 246.834 136.945 246.665 137.262 246.327C137.579 245.989 137.738 245.54 137.738 244.972C137.738 244.698 137.694 244.445 137.613 244.215C137.529 243.985 137.407 243.786 137.252 243.617C137.097 243.448 136.905 243.319 136.679 243.225C136.453 243.13 136.203 243.086 135.926 243.086H129.07C128.588 243.086 128.068 242.998 127.512 242.829C126.955 242.657 126.435 242.38 125.956 241.998C125.477 241.616 125.082 241.113 124.765 240.494C124.448 239.876 124.289 239.115 124.289 238.22C124.289 237.324 124.448 236.567 124.765 235.952C125.082 235.337 125.48 234.834 125.956 234.448C126.435 234.063 126.952 233.783 127.512 233.61C128.068 233.438 128.588 233.354 129.07 233.354H139.219V236.341H129.07C128.504 236.341 128.062 236.513 127.744 236.858C127.427 237.203 127.269 237.659 127.269 238.227C127.269 238.794 127.427 239.254 127.744 239.588C128.062 239.92 128.504 240.089 129.07 240.089H135.95C136.27 240.095 136.611 240.139 136.969 240.22C137.326 240.302 137.684 240.427 138.042 240.596C138.396 240.765 138.737 240.977 139.057 241.231C139.378 241.488 139.665 241.795 139.911 242.157C140.157 242.518 140.356 242.931 140.501 243.397C140.646 243.863 140.721 244.394 140.721 244.982L140.717 244.975Z" fill="#FDCD0B"/>
<path d="M163.107 240.241C163.107 240.923 163.022 241.532 162.854 242.066C162.685 242.603 162.459 243.076 162.172 243.485C161.885 243.894 161.555 244.245 161.18 244.536C160.806 244.827 160.414 245.063 160.006 245.249C159.598 245.431 159.183 245.567 158.768 245.651C158.349 245.736 157.958 245.776 157.594 245.776H150.853V242.789H157.594C157.975 242.758 158.322 242.681 158.633 242.552C158.943 242.427 159.206 242.255 159.429 242.042C159.652 241.826 159.824 241.569 159.945 241.268C160.067 240.967 160.128 240.623 160.128 240.241V238.886C160.09 238.51 160.009 238.166 159.888 237.852C159.767 237.537 159.598 237.27 159.389 237.047C159.179 236.828 158.923 236.652 158.626 236.523C158.329 236.398 157.985 236.334 157.594 236.334H150.873C150.475 236.334 150.174 236.439 149.969 236.645C149.763 236.851 149.658 237.152 149.658 237.541V249.818H146.676V237.541C146.676 236.773 146.814 236.125 147.094 235.587C147.374 235.053 147.722 234.621 148.137 234.29C148.552 233.962 149.007 233.722 149.496 233.573C149.985 233.424 150.438 233.35 150.849 233.35H157.59C158.262 233.35 158.866 233.438 159.402 233.607C159.939 233.779 160.408 234.009 160.819 234.296C161.227 234.584 161.575 234.915 161.862 235.29C162.149 235.665 162.385 236.057 162.574 236.469C162.763 236.878 162.898 237.291 162.982 237.71C163.066 238.129 163.107 238.521 163.107 238.886V240.241Z" fill="#FDCD0B"/>
<path d="M186.431 243.16C186.431 244.164 186.259 245.087 185.915 245.928C185.57 246.77 185.091 247.496 184.481 248.111C183.87 248.723 183.145 249.199 182.308 249.541C181.471 249.882 180.56 250.051 179.572 250.051H175.536C174.551 250.051 173.637 249.882 172.797 249.541C171.957 249.199 171.228 248.723 170.617 248.111C170.006 247.5 169.524 246.773 169.176 245.928C168.829 245.087 168.654 244.164 168.654 243.16V240.014C168.654 239.017 168.829 238.098 169.176 237.253C169.524 236.408 170.003 235.679 170.617 235.07C171.228 234.462 171.953 233.985 172.797 233.641C173.64 233.296 174.551 233.124 175.536 233.124H179.572C180.557 233.124 181.468 233.296 182.308 233.641C183.145 233.985 183.87 234.462 184.481 235.07C185.091 235.679 185.57 236.408 185.915 237.253C186.259 238.098 186.431 239.021 186.431 240.014V243.16ZM183.452 240.011C183.452 239.423 183.357 238.886 183.172 238.409C182.983 237.933 182.719 237.52 182.379 237.182C182.038 236.841 181.63 236.577 181.151 236.388C180.671 236.199 180.149 236.108 179.575 236.108H175.54C174.959 236.108 174.43 236.202 173.951 236.388C173.472 236.577 173.063 236.841 172.719 237.182C172.375 237.524 172.108 237.933 171.923 238.409C171.734 238.889 171.643 239.423 171.643 240.011V243.157C171.643 243.749 171.737 244.282 171.923 244.759C172.108 245.235 172.375 245.648 172.719 245.989C173.063 246.33 173.475 246.594 173.951 246.78C174.43 246.969 174.956 247.06 175.54 247.06H179.555C180.135 247.06 180.665 246.966 181.144 246.78C181.623 246.591 182.031 246.327 182.375 245.989C182.719 245.648 182.986 245.239 183.172 244.759C183.357 244.279 183.452 243.745 183.452 243.157V240.011Z" fill="#FDCD0B"/>
<path d="M209.337 238.886C209.337 239.568 209.252 240.176 209.084 240.714C208.915 241.248 208.689 241.721 208.402 242.133C208.115 242.542 207.785 242.894 207.41 243.184C207.036 243.475 206.644 243.715 206.236 243.901C205.828 244.086 205.413 244.225 204.998 244.309C204.579 244.394 204.188 244.435 203.824 244.435L210.052 249.821H205.443L199.228 244.435H197.082V241.447H203.827C204.201 241.417 204.542 241.339 204.853 241.211C205.163 241.086 205.43 240.913 205.656 240.7C205.882 240.487 206.054 240.227 206.179 239.926C206.3 239.626 206.361 239.278 206.361 238.886V237.003C206.361 236.834 206.34 236.706 206.297 236.618C206.253 236.53 206.202 236.466 206.135 236.422C206.071 236.381 206 236.354 205.929 236.348C205.855 236.341 205.791 236.334 205.73 236.334H195.891V249.818H192.909V234.851C192.909 234.644 192.946 234.448 193.024 234.266C193.101 234.083 193.206 233.921 193.341 233.783C193.476 233.644 193.634 233.536 193.816 233.462C193.999 233.384 194.198 233.347 194.414 233.347H205.733C206.398 233.347 206.961 233.468 207.42 233.708C207.879 233.952 208.25 234.252 208.537 234.614C208.824 234.979 209.03 235.371 209.154 235.793C209.279 236.216 209.343 236.608 209.343 236.976V238.882L209.337 238.886Z" fill="#FDCD0B"/>
<path d="M230.586 236.338H224.013V249.821H221.031V236.338H214.448V233.35H230.582V236.338H230.586Z" fill="#FDCD0B"/>
<path d="M252.101 244.975C252.101 245.567 252.027 246.094 251.879 246.567C251.73 247.037 251.535 247.452 251.288 247.814C251.042 248.172 250.759 248.48 250.428 248.733C250.101 248.987 249.76 249.193 249.409 249.352C249.058 249.51 248.7 249.632 248.336 249.706C247.972 249.784 247.631 249.821 247.31 249.821H235.809V246.834H247.31C247.884 246.834 248.329 246.665 248.646 246.327C248.964 245.989 249.122 245.54 249.122 244.972C249.122 244.698 249.078 244.445 248.997 244.215C248.913 243.985 248.792 243.786 248.636 243.617C248.481 243.448 248.289 243.319 248.063 243.225C247.837 243.133 247.587 243.086 247.31 243.086H240.454C239.972 243.086 239.452 242.998 238.896 242.829C238.339 242.657 237.819 242.38 237.34 241.998C236.861 241.616 236.466 241.113 236.149 240.494C235.832 239.876 235.674 239.115 235.674 238.22C235.674 237.324 235.832 236.567 236.149 235.952C236.466 235.337 236.865 234.834 237.34 234.448C237.819 234.063 238.336 233.783 238.896 233.61C239.452 233.438 239.972 233.354 240.454 233.354H250.603V236.341H240.454C239.888 236.341 239.446 236.513 239.129 236.858C238.811 237.203 238.653 237.659 238.653 238.227C238.653 238.794 238.811 239.254 239.129 239.588C239.446 239.92 239.888 240.089 240.454 240.089H247.334C247.654 240.095 247.995 240.139 248.353 240.22C248.711 240.302 249.068 240.427 249.426 240.596C249.78 240.765 250.121 240.977 250.441 241.231C250.762 241.488 251.049 241.795 251.295 242.157C251.541 242.518 251.74 242.931 251.885 243.397C252.03 243.863 252.105 244.394 252.105 244.982L252.101 244.975Z" fill="#FDCD0B"/>
<path fill-rule="evenodd" clip-rule="evenodd" d="M6.13721 102.848C6.13721 102.848 2.03786 124.46 4.84161 128.136C7.64536 131.81 32.2448 142.401 32.2448 142.401C32.2448 142.401 31.3811 154.073 35.4804 157.53C39.5798 160.987 82.7359 164.522 82.7359 164.522C82.7359 164.522 93.0939 156.016 116.398 152.559C139.702 149.102 234.321 147.155 258.92 153.965C258.92 153.965 294.201 145.861 312.002 152.018C329.803 158.179 331.423 158.503 331.423 158.503L329.803 151.373L351.191 153.499L313.946 88.8036L336.926 95.9341C336.926 95.9341 331.986 70.2136 291.614 57.355L296.955 49.2512L278.668 45.1993L290.159 37.7444L246.625 23.8044L265.722 18.2926C265.722 18.2926 250.509 12.2942 224.617 16.5083L227.367 7.10687C227.367 7.10687 213.935 19.9114 185.452 23.48L189.498 13.4297C189.498 13.4297 167.813 15.214 160.205 34.1792L144.182 28.6674C144.182 28.6674 131.56 34.1792 127.674 42.7696C123.79 51.36 107.443 70.6495 107.443 70.6495L53.1734 94.6398L30.9492 92.2641C30.9492 92.2641 16.4919 105.447 6.13384 102.855L6.13721 102.848Z" fill="#669940"/>
<path fill-rule="evenodd" clip-rule="evenodd" d="M142.242 130.15C142.242 130.15 96.6029 144.077 87.5404 150.075C87.5404 150.075 72.1654 144.563 59.9753 147.804C59.9753 147.804 65.1273 147.966 69.3346 149.345C69.3346 149.345 63.1029 149.589 59.3005 151.373C59.3005 151.373 64.2366 155.993 73.7039 155.181C83.1712 154.37 105.102 152.035 105.102 152.035C105.102 152.035 90.5331 161.667 83.657 163.366C76.7775 165.07 51.284 158.737 45.14 161.295C38.9961 163.856 29.9269 152.181 29.9269 152.181C29.9269 152.181 31.2225 139.538 47.8898 137.105C64.5571 134.675 91.4239 140.67 91.4239 140.67L142.242 130.147V130.15Z" fill="#3E5E2C"/>
<path fill-rule="evenodd" clip-rule="evenodd" d="M212.184 60.4438C212.184 60.4438 221.591 57.7876 227.522 53.7898C233.457 49.7919 242.411 50.4408 248.883 52.4921C248.883 52.4921 247.371 50.1164 245.863 48.9268C245.863 48.9268 254.547 49.6568 260.131 51.7621C265.715 53.8709 283.921 54.5974 289.991 52.8165L222.181 35.149L224.931 45.1993C224.931 45.1993 216.584 56.8853 212.181 60.4438H212.184Z" fill="#3E5E2C"/>
<g style="mix-blend-mode:soft-light">
<path fill-rule="evenodd" clip-rule="evenodd" d="M28.9552 135.811C28.9552 135.811 22.0791 129.001 17.8718 126.812C13.6645 124.622 10.5908 123.976 10.5908 123.976C10.5908 123.976 10.4289 112.142 12.0484 109.712C12.0484 109.712 19.1944 108.09 23.2971 106.309C23.2971 106.309 22.2174 107.823 20.4394 108.58C20.4394 108.58 33.2233 109.986 43.4733 103.392C43.4733 103.392 42.3532 102.622 40.5346 101.689C40.5346 101.689 44.6609 102.095 51.6214 100.797C58.5819 99.4993 96.4679 78.6992 96.4679 78.6992L50.3798 95.6097L30.2036 94.0957L6.036 104.362L3.12428 126.839L28.962 135.811H28.9552Z" fill="white"/>
</g>
<g style="mix-blend-mode:soft-light">
<path fill-rule="evenodd" clip-rule="evenodd" d="M120.949 66.4219C120.949 66.4219 132.043 62.1064 136.466 49.0316L128.709 54.0026C128.709 54.0026 135.174 43.6279 137.114 41.3604C139.057 39.0894 145.097 36.7137 145.097 36.7137C145.097 36.7137 150.201 41.4381 153.943 42.5499C153.943 42.5499 147.954 53.3234 143.774 57.9869L158.015 51.1133C158.015 51.1133 173.04 38.4439 189.113 36.7137C189.113 36.7137 185.851 35.2268 184.636 35.2268C184.636 35.2268 196.529 32.5537 202.923 34.4968C209.316 36.4433 221.412 46.2909 221.412 46.2909C221.412 46.2909 210.582 32.1752 201.303 28.1774C192.025 24.1795 167.965 37.4707 167.965 37.4707L144.769 29.7995C144.769 29.7995 134.519 33.9054 126.968 44.7127C119.417 55.52 116.718 65.2459 116.718 65.2459L120.946 66.4253L120.949 66.4219Z" fill="white"/>
</g>
<g style="mix-blend-mode:soft-light">
<path fill-rule="evenodd" clip-rule="evenodd" d="M62.2392 130.245C62.2392 130.245 70.6268 127.866 80.5766 130.867C80.5766 130.867 87.618 129.488 99.3493 124.422C110.196 119.738 125.899 113.294 125.899 113.294C125.899 113.294 97.4059 133.54 82.52 135.27C67.6308 137 62.2392 130.245 62.2392 130.245Z" fill="white"/>
</g>
<path fill-rule="evenodd" clip-rule="evenodd" d="M146.824 63.6238C146.824 63.6238 167.324 42.0126 198.719 46.9837C198.719 46.9837 191.704 61.8969 175.847 63.6238H146.824Z" fill="#B39530"/>
<path fill-rule="evenodd" clip-rule="evenodd" d="M151.558 62.0118C151.558 62.0118 160.904 57.9058 174.389 59.5752C174.389 59.5752 186.849 55.6247 190.949 49.7919C190.949 49.7919 171.181 47.5413 151.558 62.0118Z" fill="#FEDD0A"/>
<path fill-rule="evenodd" clip-rule="evenodd" d="M80.1481 136.348C80.1481 136.348 99.5686 130.945 114.89 122.3C130.211 113.656 169.102 87.6174 192.14 92.9061C215.177 98.1949 235.296 116.896 235.296 116.896C235.296 116.896 197.75 114.521 156.106 124.243C114.461 133.969 89.6458 140.67 89.6458 140.67L80.1515 136.348H80.1481Z" fill="white"/>
<path fill-rule="evenodd" clip-rule="evenodd" d="M297.349 60.1666L275.412 59.5753C275.412 59.5753 299.768 64.8741 314 78.0538C314 78.0538 307.012 72.6366 298.004 72.1635C298.004 72.1635 302.39 74.6676 304.755 78.4018C304.755 78.4018 293.21 76.1241 279.714 77.1312C290.315 84.505 299.782 93.0177 305.767 106.904C295.46 96.7587 288.857 92.45 277.274 91.301C277.274 91.301 286.941 104.011 279.893 118.333C279.893 118.333 280.844 112.956 275.908 105.724C275.908 105.724 274.45 123.98 255.57 137.497C255.57 137.497 188.398 135.054 109.582 151.512L197.855 148.119L270.894 154.844L301.236 151.346L334.8 161.298L331.578 153.228L351.181 153.499L313.318 87.4687L338.292 96.6438L328.626 79.5339L297.343 60.17L297.349 60.1666Z" fill="#3E5E2C"/>
<path fill-rule="evenodd" clip-rule="evenodd" d="M31.4587 101.378C30.4161 103.142 26.0368 105.913 26.0368 105.913C26.0368 105.913 26.7723 106.12 31.8703 106.153C36.9683 106.187 41.81 103.629 41.81 103.629C35.7166 100.706 31.4587 101.378 31.4587 101.378Z" fill="#091A1D"/>
<path fill-rule="evenodd" clip-rule="evenodd" d="M228.082 78.3173C233.157 75.0157 235.167 70.3082 237.431 63.8569C231.959 70.4467 221.166 76.8203 211.536 80.5106C211.536 80.5106 241.99 86.2285 261.262 102.304C261.262 102.304 245.951 83.9136 228.082 78.3173Z" fill="#FDCD0B"/>
<path fill-rule="evenodd" clip-rule="evenodd" d="M373 153.972C373 153.972 360.408 157.676 347.905 139.288C336.312 122.239 333.056 110.263 320.13 93.5652C328.953 95.0994 339.51 100.473 349.399 115.028C349.399 115.028 351.569 86.0021 321.25 65.594C310.923 58.6426 304.074 57.2638 299.738 55.645C314.469 50.9375 320.387 41.7118 320.387 41.7118C308.092 43.9659 297.282 46.1354 285.966 44.9729C285.966 44.9729 299.89 42.9014 303.126 29.3906C303.126 29.3906 296.094 34.5813 282.059 32.1448C269.568 29.9752 265.04 26.5789 254.251 23.5544C261.508 21.28 268.205 22.4493 280.476 24.2877C271.387 10.2565 240.549 9.61438 229.32 13.2371C231.375 9.88473 231.392 4.55206 228.895 -0.00335693C228.895 -0.00335693 224.705 12.2706 201.168 17.3937C193.708 19.0192 190.085 19.712 190.085 19.712C191.795 16.461 193.533 13.5041 200.922 9.02299C174.683 10.1956 166.967 18.2251 158.478 30.2456C158.478 30.2456 147.411 24.7034 146.956 24.7676C141.18 25.582 128.554 34.0068 127.744 35.3856C121.108 46.7336 104.117 67.8446 104.117 67.8446C99.0524 70.0716 66.7165 86.2691 54.1047 90.8278C43.3485 94.7141 30.3352 87.6242 30.3352 87.6242C23.2938 98.2524 14.5688 98.6038 4.31197 100.473C4.31197 100.473 -2.3617 112.469 0.87392 131.458C0.87392 131.458 11.4209 132.986 16.9474 138.329C20.0784 141.356 24.2419 143.411 29.2286 144.256C26.327 147.443 25.551 151.775 25.551 151.775C27.3931 156.371 41.0846 165.269 41.0846 165.269C41.0846 165.269 54.2194 163.42 66.0113 165.766C77.8033 168.114 83.8055 168.797 92.1932 163.17C96.1069 160.545 101.198 158.311 105.52 156.679C127.137 154.722 158.845 152.184 184.909 151.424C229.081 150.139 267.078 163.468 267.078 163.468L270.017 160.406C273.448 162.613 279.501 165.549 285.844 164.086C295.548 161.846 295.747 151.812 318.926 159.453C342.105 167.097 345.205 172.879 365.166 170.585C365.166 170.585 354.879 167.378 343.711 158.166C353.134 160.298 366.016 161.366 372.987 153.965L373 153.972ZM223.757 12.2706C221.24 19.3301 213.402 23.4868 213.402 23.4868C235.491 15.6534 245.006 16.6908 257.459 18.8503C257.459 18.8503 242.995 19.5532 234.246 26.6397C234.246 26.6397 241.77 25.5854 252.614 30.0428C262.493 34.1048 270.739 38.2277 284.431 39.6876C280.213 41.7929 269.039 43.1312 252.29 36.93C227.087 27.6029 219.971 29.6406 213.578 29.5629C210.106 26.4133 206.961 23.4902 205.035 21.5402C216.945 18.6306 223.76 12.274 223.76 12.274L223.757 12.2706ZM183.31 17.7993C179.946 19.4754 178.708 20.5568 175.83 25.3421C175.482 25.6293 171.94 29.1135 166.798 34C166.052 33.8311 164.365 33.3208 164.365 33.3208C169.46 24.4161 175.874 19.5464 183.31 17.7993ZM311.81 145.571C305.285 142.374 292.983 145.016 292.983 145.016C298.446 140.731 303.79 134.108 309.124 127.335C301.644 121.111 296.357 105.444 296.357 105.444C295.47 114.277 298.372 127.16 298.372 127.16C298.372 127.16 294.991 131.435 282.76 138.403C269.838 145.767 258.593 147.156 258.593 147.156C229.462 137.494 116.826 145.966 79.0179 157.966C83.431 157.655 87.6451 157.409 90.2329 157.692C84.0822 162.555 73.4138 161.89 62.3439 159.369C52.4987 157.125 48.1969 158.368 44.5429 158.72C40.8889 159.071 34.9137 153.424 34.8057 152.073C34.6471 150.143 36.3071 146.703 39.8194 145.03C66.2172 132.452 85.9514 146.077 85.9514 146.077C85.9514 146.077 87.8577 143.499 147.759 128.792C196.323 116.866 227.968 119.424 238.207 120.82C243.258 125.118 246.143 128.255 246.143 128.255C237.644 99.55 185.473 85.8973 166.187 82.0212C172.804 85.0727 177.257 87.8506 180.246 90.1452C166.626 90.0236 154.709 96.0355 146.463 100.942C135.66 107.373 87.7024 138.122 75.59 133.094C63.4775 128.065 54.1047 130.36 42.4983 134.841C31.7118 139.004 24.5219 134.388 19.9502 131.384C14.3866 127.731 7.00438 125.872 7.00438 125.872C5.60082 120.144 7.19332 112.422 8.79595 107.015C19.154 106.258 24.9943 101.855 30.8244 96.6472C38.932 98.7289 48.2475 100.378 56.4327 96.8601C83.6875 85.1403 115.382 69.852 120.956 66.4287C128.274 61.9341 131.186 55.3071 131.186 55.3071C126.223 59.5786 120.312 61.1095 120.312 61.1095C125.777 53.1477 132.94 40.4209 132.94 40.4209C138.511 35.149 145.4 32.8848 145.4 32.8848C150.178 35.9331 157.658 37.8796 161.582 38.8765L161.551 38.9711C147.263 56.9191 133.342 68.6016 106.047 82.866C106.047 82.866 135.737 71.251 160.398 68.0778C183.165 65.1445 199.782 74.573 199.782 74.573C194.225 69.5782 189.279 66.6686 184.734 65.1479C199.542 59.9909 201.151 48.2036 210.457 46.0172C210.457 46.0172 199.613 37.4267 173.64 43.9084C167.449 45.4528 158.022 51.12 158.022 51.12C161.879 47.6866 171.532 37.2003 179.545 32.3982C186.596 30.7761 192.416 29.0492 200.342 29.1574C202.012 28.8904 218.149 40.7554 221.422 46.2976C217.863 48.528 219.357 52.2961 212.191 60.4471C221.382 56.1722 222.35 48.9302 231.2 47.2033C229.705 43.9321 227.741 41.3164 225.467 39.13C225.467 39.13 236.291 38.4744 249.81 43.9354C273.536 53.5194 290.001 52.8232 290.001 52.8232C286.118 57.3618 275.419 59.582 275.419 59.582C275.419 59.582 316.055 64.837 331.106 90.7535C331.106 90.7535 319.132 81.352 296.614 82.9403H296.617L296.634 82.9539C297.052 83.2411 303.868 88.0736 312.549 101.804C321.507 115.977 331.811 142.83 344.227 149.808C331.19 145.3 320.913 139.403 314.621 131.1C314.621 131.1 312.822 141.816 324.425 152.559C324.425 152.559 319.145 149.166 311.82 145.577L311.81 145.571ZM181.316 108.83C197.963 105.248 208.004 104.65 212.39 104.602C219.408 107.809 225.265 111.121 227.212 112.439C194.039 106.789 91.6297 137.467 91.6297 137.467C91.6297 137.467 88.3975 137.281 85.948 136.855C130.312 123.811 159.034 97.3399 186.846 97.1203C190.51 97.0899 195.001 98.0766 199.647 99.5703C170.003 106.072 148.194 116.869 148.194 116.869C169.045 112.473 191.512 109.509 191.512 109.509C186.812 109.337 181.316 108.826 181.316 108.826V108.83ZM151.558 62.0118C151.558 62.0118 169.507 47.0614 195.068 47.8657C195.068 47.8657 189.575 58.673 174.544 61.8462C164.328 60.5553 162.695 60.5722 151.558 62.0118Z" fill="#222916"/>
<path fill-rule="evenodd" clip-rule="evenodd" d="M247.526 74.1404C250.792 72.0148 252.088 68.9835 253.545 64.8302C250.023 69.0713 243.073 73.1773 236.875 75.553C236.875 75.553 256.481 79.2365 268.887 89.5842C268.887 89.5842 259.031 77.7428 247.526 74.1404Z" fill="#FDCD0B"/>
<path d="M52.9946 236.976C42.1001 239.73 34.1174 237.571 29.3061 229.258C25.669 223.073 24.4139 214.567 25.5037 204.433C26.725 193.088 30.4263 183.024 36.4319 175.201C37.8726 173.4 39.3807 171.791 40.9496 170.372C36.8536 168.04 32.7712 165.6 28.7056 163.032C48.8716 162.711 69.0512 162.454 89.2409 162.258C88.6066 169.176 87.9723 176.097 87.338 183.014C83.9 181.23 80.4821 179.395 77.0846 177.506C73.2686 177.719 69.4527 177.945 65.6402 178.182C60.6703 178.486 56.6688 181.301 53.3624 186.995C50.9905 191.104 49.5026 195.849 48.9594 200.962C48.207 208.099 49.3237 213.54 52.3299 216.957C54.6006 219.478 57.5697 220.309 61.3789 219.63C64.6617 219.005 67.9513 218.406 71.2443 217.832C74.6553 212.03 78.036 206.383 81.3864 200.874C81.8115 203.314 82.2433 205.744 82.6786 208.157C83.0598 210.279 83.6638 213.361 84.541 217.528C85.4014 221.708 86.0458 224.79 86.4574 226.825C86.6463 227.75 86.8353 228.676 87.0242 229.599C75.6203 231.684 64.2737 234.141 52.9946 236.969V236.976Z" fill="#222916"/>
<path d="M85.9918 164.749C85.5633 169.324 85.1382 173.897 84.7097 178.472C82.5672 177.316 80.4315 176.14 78.3026 174.941C74.1695 175.14 70.0398 175.35 65.9101 175.573C59.675 175.9 54.6175 179.327 50.6834 186.15C48.0788 190.692 46.4694 195.829 45.8789 201.408C45.0456 209.255 46.2804 215.206 49.6409 219.038C52.4379 222.154 56.2572 223.148 61.0752 222.249C65.0632 221.458 69.0613 220.708 73.0628 219.995C75.2424 216.298 77.4085 212.665 79.5644 209.093C79.9457 211.256 80.5564 214.429 81.4066 218.569C82.2535 222.762 82.8878 225.858 83.2926 227.906C73.2383 229.761 63.2278 231.897 53.2713 234.313C43.5779 236.682 36.5331 234.644 32.174 227.173C28.7258 221.353 27.5517 213.469 28.5807 203.922C29.7312 193.244 33.1625 183.943 38.8071 176.627C41.0508 173.839 43.4699 171.551 46.0645 169.747C43.7432 168.446 41.4287 167.114 39.1209 165.742C54.7322 165.347 70.3569 165.019 85.9918 164.752M92.49 159.808C90.4758 159.815 88.4649 159.818 86.4507 159.825C70.8765 159.869 55.3057 159.926 39.7384 159.994C32.6025 160.024 25.4666 160.058 18.3307 160.092C24.0023 163.91 29.6975 167.455 35.4231 170.777C35.6862 170.929 35.9494 171.081 36.2092 171.234C35.5108 171.997 34.8259 172.798 34.1612 173.633C34.1443 173.653 34.1275 173.673 34.114 173.694C34.0971 173.714 34.0836 173.734 34.0667 173.755C27.6731 182.119 23.7357 192.882 22.4334 204.956C21.2761 215.73 22.5953 224.804 26.445 231.397C31.6409 240.457 40.7404 242.775 52.7146 239.643C62.7014 237.057 72.7491 234.769 82.8405 232.782C85.4823 232.262 88.1241 231.762 90.7693 231.285C90.3813 229.457 90 227.622 89.6188 225.784C89.197 223.739 88.5358 220.64 87.6754 216.538C86.788 212.388 86.1774 209.34 85.7961 207.254C84.9155 202.459 84.0518 197.613 83.2015 192.713C80.165 197.66 77.1014 202.723 74.0143 207.91C72.496 210.461 70.971 213.04 69.4426 215.652C66.8447 216.095 64.2467 216.555 61.6521 217.028C59.7526 217.342 57.2896 217.41 55.0088 214.905C52.3569 211.881 51.3717 207.001 52.0499 200.533C52.5425 195.852 53.8954 191.537 56.0581 187.813C59.5266 181.889 62.8533 180.986 65.3736 180.797C68.869 180.551 72.3678 180.314 75.8666 180.091C77.4996 180.986 79.1393 181.872 80.7824 182.744C83.8358 184.366 86.9061 185.944 89.9933 187.488C90.2733 184.376 90.5534 181.26 90.8334 178.148C91.2383 173.65 91.6432 169.152 92.048 164.657C92.1931 163.045 92.3382 161.43 92.4833 159.818L92.49 159.808Z" fill="#222916"/>
<path d="M122.997 224.27C123.574 222.597 124.151 220.928 124.725 219.265C120.814 215.52 116.958 211.736 113.155 207.876C113.007 209.911 112.862 211.948 112.713 213.983C113.624 217.741 114.546 221.472 115.483 225.179C105.287 226.487 95.1183 228.085 84.9931 229.978C86.5654 225.611 88.1275 221.289 89.6761 217.007C90.9785 202.294 92.2842 187.58 93.5866 172.866C88.9777 169.497 84.4162 166.006 79.8984 162.353C96.3464 162.177 112.805 162.045 129.263 161.95C138.16 161.91 144.685 164.83 148.774 170.49C151.122 173.799 152.259 177.502 152.111 181.537C151.882 187.897 149.041 193.017 143.582 196.92C141.601 198.309 139.425 199.438 137.06 200.296C144.145 207.407 151.416 214.378 158.883 221.387C146.898 221.948 134.931 222.908 122.997 224.266V224.27ZM120.986 189.381C122.987 189.263 125.521 188.729 127.299 185.637C127.933 184.518 128.291 183.342 128.365 182.152C128.524 179.53 127.609 177.644 125.585 176.37C124.563 175.769 123.311 175.475 121.826 175.522C119.714 175.59 117.599 175.664 115.487 175.738C115.146 180.419 114.809 185.099 114.468 189.783C116.641 189.641 118.81 189.509 120.986 189.381Z" fill="#222916"/>
<path d="M129.131 164.174C136.881 164.106 142.482 166.604 146.035 171.545C148.16 174.552 149.169 177.898 149.02 181.612C148.791 187.431 146.284 192.01 141.432 195.491C137.691 198.13 133.143 199.641 127.835 200.012C127.269 200.053 126.702 200.094 126.138 200.134C129.033 200.807 131.938 201.479 134.853 202.158C140.71 208.025 146.696 213.797 152.813 219.566C144.223 220.049 135.646 220.731 127.083 221.617C127.451 220.556 127.815 219.495 128.18 218.437C121.199 211.776 114.4 204.99 107.767 197.924C108.587 200.246 109.417 202.55 110.25 204.845C110.008 208.096 109.761 211.347 109.518 214.598C110.22 217.555 110.932 220.498 111.654 223.425C104.147 224.412 96.6568 225.554 89.1903 226.848C90.4117 223.472 91.6263 220.123 92.8342 216.798C94.1365 201.766 95.4388 186.735 96.7412 171.703C93.627 169.436 90.5331 167.111 87.4595 164.722C101.347 164.488 115.237 164.306 129.134 164.174M111.188 192.284C114.404 192.051 117.619 191.834 120.835 191.632C125.146 191.358 128.261 189.577 130.153 186.289C130.94 184.9 131.371 183.487 131.456 182.034C131.641 178.78 130.386 176.323 127.711 174.633C126.088 173.674 124.181 173.214 121.978 173.278C115.544 173.461 109.117 173.67 102.689 173.907C105.895 174.954 109.107 175.982 112.336 176.995C111.954 182.092 111.57 187.191 111.188 192.287M129.401 159.73C115.568 159.754 101.738 159.784 87.9082 159.825C82.7326 159.838 77.5569 159.855 72.3813 159.872C75.9003 162.836 79.443 165.688 83.0126 168.456C85.4756 170.365 87.9521 172.227 90.442 174.055C89.1397 188.448 87.8407 202.841 86.5384 217.23C85.3811 220.437 84.2171 223.668 83.0463 226.923C82.2973 229.004 81.5483 231.093 80.7959 233.195C83.4478 232.661 86.1031 232.15 88.7618 231.657C96.2587 230.272 103.779 229.048 111.32 227.994C113.992 227.619 116.668 227.264 119.343 226.933C121.833 226.622 124.323 226.331 126.817 226.057C135.417 225.111 144.037 224.381 152.664 223.864C156.77 223.617 160.88 223.418 164.989 223.269C162.712 221.134 160.451 219.008 158.208 216.882C152.563 211.536 147.033 206.2 141.608 200.803C143.045 200.097 144.412 199.289 145.701 198.387C145.707 198.38 145.714 198.377 145.724 198.37C145.731 198.363 145.738 198.36 145.748 198.353C151.841 194.017 154.989 188.408 155.212 181.477C155.357 177.1 154.102 173.075 151.531 169.473C146.932 163.143 139.341 159.734 129.404 159.737L129.401 159.73ZM118.399 177.898C119.492 177.854 120.585 177.813 121.678 177.773C122.437 177.746 122.977 177.861 123.52 178.165C124.37 178.716 125.433 179.743 125.275 182.277C125.214 183.22 124.941 184.112 124.435 185.008C123.287 187.009 122.194 187.069 121.138 187.123C120.005 187.184 118.871 187.249 117.741 187.313C117.96 184.173 118.179 181.03 118.399 177.891V177.898ZM119.161 226.23C118.77 224.712 118.378 223.195 117.99 221.671C117.461 219.586 116.934 217.497 116.415 215.399C118.024 216.984 119.647 218.555 121.277 220.12C121.128 220.549 120.98 220.978 120.831 221.411C120.278 223.013 119.721 224.621 119.161 226.233V226.23Z" fill="#222916"/>
<path d="M187.052 221.671C177.23 221.614 168.768 219.346 162.084 214.618C154.395 209.188 150.802 201.526 151.17 191.79C151.561 181.48 156.089 173.254 164.392 167.57C165.151 167.063 165.924 166.584 166.707 166.141C162.806 164.428 158.93 162.707 155.077 160.967C165.668 160.943 176.262 160.933 186.853 160.937C195.989 160.94 203.921 163.414 210.598 168.412C218.21 174.194 222.39 182.21 222.819 192.007C223.271 202.283 219.404 210.184 211.084 215.537C204.387 219.751 196.259 221.718 187.052 221.671ZM186.896 174.441C185.776 174.441 182.392 174.434 179.032 178.783C176.636 181.953 175.368 186.214 175.314 191.415C175.239 198.451 177.308 203.466 181.522 206.379C183.293 207.569 185.102 208.164 187.008 208.17C188.168 208.17 191.728 208.201 195.115 203.977C197.514 200.861 198.678 196.65 198.594 191.486C198.472 184.393 196.3 179.277 192.197 176.323C190.476 175.056 188.759 174.447 186.9 174.444L186.896 174.441Z" fill="#222916"/>
<path d="M186.859 163.052C195.179 163.059 202.312 165.293 208.402 169.845C215.491 175.221 219.317 182.639 219.691 191.885C220.083 201.584 216.506 208.917 208.746 213.942C202.66 217.798 195.382 219.599 187.048 219.555C178.161 219.505 170.597 217.437 164.5 213.108C157.32 208.008 153.987 200.888 154.301 191.689C154.635 181.963 158.771 174.36 166.504 169.071C168.319 167.858 170.212 166.84 172.183 166.016C169.949 165.039 167.726 164.059 165.509 163.076C172.625 163.055 179.744 163.049 186.859 163.052ZM187.015 210.282C191.441 210.303 195.099 208.569 197.933 205.021C200.591 201.567 201.836 197.072 201.725 191.534C201.566 183.829 199.097 178.253 194.403 174.866C192.113 173.173 189.612 172.329 186.886 172.325C182.652 172.322 179.143 174.147 176.306 177.807C173.647 181.321 172.254 185.876 172.176 191.446C172.068 199.087 174.382 204.537 179.204 207.849C181.613 209.461 184.221 210.269 187.011 210.282M186.846 158.821H144.692C150.309 161.42 155.981 163.958 161.7 166.479C153.16 172.562 148.477 181.199 148.039 191.902C147.617 202.226 151.436 210.364 159.655 216.139C166.97 221.282 176.258 223.719 187.058 223.786C197.18 223.841 206.098 221.735 213.375 217.18C213.385 217.173 213.392 217.17 213.402 217.163C213.412 217.156 213.419 217.153 213.429 217.146C222.347 211.445 226.459 203.047 225.947 192.138C225.457 181.743 220.956 173.187 212.818 167.003C205.49 161.514 196.829 158.828 186.842 158.824L186.846 158.821ZM181.775 179.743C184.248 176.549 186.242 176.553 186.903 176.556C187.295 176.556 188.33 176.556 189.923 177.732C189.933 177.739 189.94 177.746 189.95 177.752C189.96 177.759 189.967 177.766 189.977 177.773C193.509 180.314 195.368 184.92 195.456 191.442C195.52 196.241 194.461 200.117 192.278 202.969C189.781 206.068 187.686 206.058 187.001 206.058C186.637 206.058 185.523 206.051 183.799 204.896C180.189 202.371 178.404 197.84 178.448 191.395C178.482 186.549 179.612 182.629 181.775 179.75V179.743Z" fill="#222916"/>
<path d="M254.166 225.371C243.083 223.908 234.108 219.309 227.741 211.59C222.937 205.801 220.406 199.245 220.11 191.905C219.779 183.69 222.198 176.762 227.151 171.18C228.352 169.899 229.641 168.743 231.014 167.719C226.527 165.725 222.066 163.779 217.633 161.863C237.836 161.93 258.036 162.062 278.226 162.258C278.857 169.162 279.488 176.069 280.119 182.974C276.309 180.709 272.517 178.516 268.742 176.391C264.919 176.222 261.093 176.063 257.267 175.917C252.28 175.732 248.687 177.83 246.231 182.203C244.473 185.37 243.7 189.073 243.967 193.25C244.338 199.073 246.383 203.858 250.101 207.613C252.894 210.387 256.153 211.996 260.013 212.486C263.333 212.871 266.65 213.283 269.963 213.719C272.463 209.174 274.919 204.544 277.342 199.816C278.226 202.344 279.11 204.886 280.001 207.44C280.773 209.661 281.961 212.949 283.648 217.541C285.311 222.12 286.549 225.578 287.356 227.865C287.723 228.906 288.091 229.95 288.459 230.998C277.079 228.754 265.644 226.879 254.17 225.375L254.166 225.371Z" fill="#222916"/>
<path d="M275.419 164.637C275.82 169.125 276.222 173.613 276.623 178.104C274.248 176.729 271.876 175.377 269.514 174.055C265.374 173.893 261.235 173.744 257.095 173.609C250.843 173.41 246.285 175.985 243.353 181.166C241.416 184.626 240.569 188.57 240.842 193.054C241.224 199.354 243.464 204.507 247.624 208.691C251.072 212.097 255.263 214.138 260.145 214.78C264.18 215.267 268.209 215.794 272.234 216.359C273.83 213.456 275.405 210.516 276.967 207.538C277.753 209.789 278.961 213.125 280.604 217.592C282.251 222.117 283.482 225.537 284.285 227.801C274.231 225.956 264.136 224.395 254.011 223.111C244.156 221.85 236.244 217.744 230.481 210.725C225.93 205.223 223.554 199.056 223.247 192.034C222.907 184.18 225.127 177.692 229.776 172.433C231.642 170.439 233.744 168.784 236.089 167.466C233.548 166.327 231.014 165.205 228.487 164.096C244.139 164.218 259.784 164.4 275.422 164.651M281.023 159.825C279.009 159.818 276.998 159.815 274.983 159.808C259.409 159.767 243.835 159.734 228.258 159.713C221.118 159.703 213.979 159.696 206.84 159.693C212.997 162.332 219.215 165.009 225.484 167.773C225.771 167.898 226.058 168.027 226.348 168.155C225.751 168.699 225.177 169.267 224.621 169.858C224.607 169.872 224.594 169.885 224.58 169.902C224.567 169.916 224.553 169.933 224.543 169.946C219.266 175.88 216.665 183.18 216.982 191.797C217.265 199.489 219.924 206.376 225.015 212.482C231.898 220.796 242.138 225.98 254.328 227.649C264.497 229.025 274.636 230.697 284.727 232.674C287.369 233.191 290.008 233.729 292.639 234.286C291.897 232.161 291.155 230.048 290.416 227.947C289.596 225.611 288.334 222.083 286.681 217.514C284.994 212.895 283.803 209.593 283.024 207.346C281.232 202.192 279.454 197.093 277.696 192.051C275.51 196.427 273.29 200.719 271.039 204.94C269.933 207.015 268.819 209.069 267.696 211.107C265.078 210.786 262.459 210.478 259.838 210.184C257.915 209.948 255.35 209.296 252.55 206.508C249.271 203.169 247.445 198.813 247.091 193.45C246.831 189.563 247.523 186.143 249.122 183.241C251.693 178.614 254.908 178.107 257.442 178.219C260.951 178.371 264.46 178.533 267.966 178.709C269.781 179.736 271.599 180.78 273.425 181.842C276.816 183.812 280.22 185.836 283.634 187.924C283.341 184.765 283.047 181.602 282.754 178.442C282.329 173.876 281.903 169.311 281.478 164.745C281.326 163.106 281.175 161.471 281.023 159.832V159.825Z" fill="#222916"/>
<path d="M320.626 239.447C311.061 236.899 302.431 231.829 295.153 224.682C286.782 216.436 282.106 207.123 281.107 196.126C280.051 184.491 283.418 175.644 290.919 169.189C291.607 168.615 292.309 168.074 293.031 167.567C288.898 165.391 284.785 163.299 280.689 161.271C291.276 161.346 301.86 161.433 312.444 161.531C321.571 161.609 329.82 164.901 337.04 172.051C345.29 180.287 350.266 192.061 351.761 206.008C353.326 220.64 350.476 231.302 343.11 236.868C337.165 241.241 329.594 241.822 320.626 239.44V239.447ZM314.26 178.858C313.15 178.766 309.782 178.601 307.029 183.761C305.079 187.526 304.401 192.629 305.052 199.043C305.933 207.711 308.662 214.253 313.19 218.761C315.086 220.61 316.938 221.732 318.808 222.124C319.945 222.347 323.423 223.148 326.19 218.221C328.133 214.564 328.744 209.137 328.008 202.263C326.996 192.814 324.213 185.789 319.766 181.652C317.9 179.871 316.112 178.983 314.263 178.854L314.26 178.858Z" fill="#222916"/>
<path d="M312.724 164.248C321.028 164.397 328.437 167.428 335.023 173.934C342.705 181.591 347.287 192.405 348.691 205.47C350.158 219.167 347.533 228.984 340.657 234.208C335.249 238.206 328.461 238.825 320.339 236.736C311.679 234.506 303.962 229.984 297.332 223.438C289.522 215.703 285.19 206.964 284.218 196.451C283.189 185.339 286.252 177.07 293.233 171.068C294.876 169.699 296.624 168.537 298.48 167.594C296.118 166.33 293.763 165.093 291.411 163.883C298.52 163.995 305.622 164.117 312.728 164.248M319.091 224.837C323.423 225.787 326.757 224.3 329.071 220.116C331.224 216.034 331.885 210.184 331.089 202.743C329.975 192.382 326.855 184.653 321.77 179.908C319.283 177.533 316.689 176.303 313.98 176.144C309.769 175.901 306.52 178.023 304.195 182.321C302.029 186.461 301.27 191.855 301.955 198.654C302.893 207.968 305.929 215.017 311.115 220.154C313.7 222.658 316.362 224.239 319.091 224.837ZM312.154 158.821H270C275.982 161.673 282.011 164.657 288.078 167.807C280.399 174.697 276.934 183.879 277.996 195.819C279.019 207.339 283.999 217.132 292.956 225.912C300.926 233.691 310.4 239.267 320.91 242.16C330.758 244.86 339.051 244.343 345.509 239.616C345.516 239.609 345.526 239.602 345.533 239.599C345.539 239.592 345.55 239.585 345.556 239.582C353.438 233.654 356.488 222.222 354.821 206.568C353.225 191.652 347.898 178.999 339.082 170.183C331.16 162.322 322.145 158.818 312.158 158.824L312.154 158.821ZM309.88 185.207C311.908 181.389 313.888 181.514 314.543 181.571C314.931 181.602 315.96 181.676 317.691 183.318C317.701 183.328 317.711 183.335 317.721 183.345C317.731 183.355 317.742 183.362 317.752 183.372C321.584 186.931 324.004 193.196 324.921 201.8C325.596 208.13 325.053 213.077 323.285 216.399C321.244 219.988 319.192 219.542 318.521 219.414C318.163 219.343 317.073 219.116 315.228 217.318C311.348 213.419 308.976 207.474 308.149 199.445C307.529 193.406 308.119 188.651 309.88 185.207Z" fill="#222916"/>
<path d="M45.8789 201.412C46.4694 195.825 48.0821 190.689 50.6868 186.15C54.6141 179.327 59.6784 175.904 65.9134 175.573C70.0432 175.35 74.1729 175.137 78.2992 174.937C80.4349 176.141 82.5605 177.323 84.7097 178.472C85.1314 173.903 85.5667 169.331 85.9884 164.749C70.3502 165.016 54.7254 165.35 39.1209 165.742C41.4253 167.114 43.7399 168.452 46.0645 169.743C43.4699 171.548 41.0441 173.846 38.8071 176.62C33.1659 183.923 29.7481 193.196 28.5908 203.841C28.5908 203.865 28.5807 203.899 28.5807 203.919C27.5449 213.462 28.7258 221.353 32.174 227.173C36.5264 234.641 43.5712 236.682 53.2645 234.307C63.2244 231.887 73.2315 229.758 83.2926 227.896C82.881 225.855 82.2467 222.756 81.3999 218.565C80.553 214.429 79.9423 211.252 79.5644 209.09C77.4051 212.668 75.2357 216.301 73.0527 219.991C69.058 220.705 65.0632 221.451 61.0651 222.242C56.2471 223.144 52.4278 222.154 49.6341 219.032C46.3715 215.321 45.1164 209.613 45.8047 202.111C45.8283 201.878 45.8486 201.641 45.8722 201.408L45.8789 201.412Z" fill="#FDCD0B"/>
<path d="M152.813 219.572C146.692 213.797 140.714 208.025 134.85 202.158C131.935 201.479 129.03 200.81 126.135 200.131H126.189C126.179 200.107 126.155 200.097 126.145 200.097C132.066 199.952 137.097 198.468 141.183 195.66C141.271 195.606 141.348 195.548 141.429 195.494C146.281 192.017 148.798 187.434 149.021 181.615C149.176 177.905 148.164 174.559 146.038 171.548C142.489 166.611 136.878 164.113 129.131 164.181C115.241 164.316 101.34 164.492 87.4628 164.728C90.5331 167.114 93.627 169.443 96.7344 171.707C95.9652 180.547 95.1993 189.388 94.4402 198.215C93.8936 204.412 93.3605 210.6 92.8274 216.798C91.6263 220.13 90.4117 223.476 89.1869 226.852C96.6535 225.557 104.144 224.412 111.657 223.428C110.935 220.495 110.22 217.555 109.522 214.598C109.768 211.344 110.011 208.099 110.244 204.845C109.41 202.547 108.584 200.242 107.761 197.921C114.394 204.987 121.196 211.776 128.173 218.434C127.815 219.491 127.451 220.552 127.083 221.62C135.643 220.728 144.223 220.049 152.816 219.569L152.813 219.572ZM121.982 173.275C124.175 173.207 126.088 173.663 127.714 174.623C130.386 176.316 131.641 178.77 131.452 182.024C131.375 183.484 130.94 184.9 130.15 186.282C128.257 189.57 125.143 191.355 120.835 191.632C117.619 191.831 114.4 192.044 111.185 192.277C111.563 187.184 111.954 182.078 112.332 176.982C109.103 175.968 105.888 174.941 102.683 173.893C109.117 173.66 115.548 173.447 121.982 173.268V173.275Z" fill="#FDCD0B"/>
<path d="M219.691 191.882C219.313 182.639 215.484 175.228 208.405 169.841C202.319 165.293 195.183 163.052 186.859 163.052C179.747 163.052 172.625 163.052 165.512 163.076C167.726 164.056 169.952 165.039 172.179 166.019C170.209 166.844 168.316 167.858 166.504 169.074C158.781 174.36 154.642 181.96 154.307 191.692C154.264 192.885 154.284 194.044 154.375 195.16C154.908 202.706 158.248 208.67 164.504 213.108C170.604 217.443 178.161 219.505 187.052 219.562C195.389 219.606 202.656 217.802 208.743 213.942C215.909 209.306 219.506 202.716 219.705 194.122C219.728 193.386 219.728 192.639 219.695 191.882H219.691ZM197.933 205.024C195.105 208.569 191.445 210.309 187.015 210.286C184.221 210.276 181.616 209.461 179.214 207.856C175.084 205.014 172.793 200.621 172.291 194.622C172.203 193.609 172.169 192.547 172.179 191.446C172.257 185.873 173.647 181.324 176.309 177.8C179.146 174.143 182.652 172.315 186.893 172.325C189.619 172.325 192.113 173.173 194.407 174.866C199.103 178.246 201.573 183.829 201.732 191.534C201.755 192.436 201.732 193.308 201.688 194.153C201.411 198.512 200.163 202.135 197.936 205.021L197.933 205.024Z" fill="#FDCD0B"/>
<path d="M280.601 217.585C278.955 213.114 277.753 209.782 276.961 207.532C275.402 210.509 273.823 213.452 272.23 216.348C268.202 215.791 264.173 215.257 260.131 214.777C255.256 214.132 251.062 212.09 247.621 208.691C243.747 204.788 241.544 200.063 240.944 194.355C240.9 193.919 240.866 193.487 240.832 193.051C240.566 188.57 241.413 184.623 243.349 181.169C246.288 175.985 250.839 173.41 257.095 173.609C261.235 173.745 265.374 173.886 269.514 174.055C271.873 175.384 274.245 176.732 276.616 178.101C276.215 173.62 275.817 169.128 275.415 164.634C259.777 164.387 244.129 164.198 228.48 164.086C231.007 165.191 233.534 166.317 236.082 167.452C233.734 168.767 231.632 170.429 229.773 172.423C225.12 177.675 222.907 184.163 223.241 192.02C223.274 192.733 223.328 193.446 223.406 194.139C224.05 200.293 226.388 205.768 230.474 210.715C236.24 217.727 244.152 221.84 254.001 223.1C264.129 224.381 274.224 225.943 284.285 227.794C283.486 225.53 282.248 222.11 280.601 217.582V217.585Z" fill="#FDCD0B"/>
<path d="M348.694 205.47C348.529 203.875 348.306 202.304 348.026 200.776C346.123 189.807 341.771 180.655 335.026 173.934C328.437 167.425 321.024 164.404 312.721 164.245C305.619 164.11 298.52 163.988 291.408 163.887C293.756 165.09 296.115 166.327 298.476 167.587C296.627 168.534 294.883 169.693 293.233 171.065C286.387 176.952 283.307 185.022 284.164 195.812C284.174 196.025 284.198 196.234 284.218 196.447C285.186 206.961 289.515 215.7 297.329 223.435C303.962 229.978 311.675 234.492 320.333 236.733C328.457 238.818 335.246 238.203 340.654 234.202C347.533 228.974 350.158 219.163 348.691 205.463L348.694 205.47ZM329.071 220.116C326.757 224.297 323.416 225.79 319.088 224.831C316.362 224.239 313.7 222.658 311.108 220.15C305.933 215.01 302.896 207.968 301.948 198.647C301.894 198.022 301.837 197.421 301.803 196.819C301.425 190.878 302.225 186.083 304.195 182.315C306.51 178.023 309.759 175.904 313.98 176.14C316.685 176.306 319.277 177.533 321.77 179.909C326.234 184.079 329.172 190.533 330.586 199.039C330.785 200.232 330.954 201.469 331.085 202.74C331.888 210.188 331.22 216.038 329.071 220.12V220.116Z" fill="#FDCD0B"/>
<path d="M46.2197 234.131C40.3659 234.131 36.0911 231.671 33.1423 226.612C29.9303 221.191 28.7427 213.878 29.6098 204.855C34.6741 204.321 39.6 203.828 44.6036 203.348C44.1481 210.556 45.5618 216.075 48.8075 219.772C51.1322 222.367 54.1687 223.682 57.843 223.682C58.9226 223.682 60.0765 223.567 61.2776 223.344H61.2878C65.1239 222.58 69.0377 221.847 73.2551 221.093L73.7579 221.002L74.0177 220.563C75.681 217.751 77.3511 214.943 79.0077 212.188C79.3654 214.061 79.8074 216.294 80.3168 218.792C80.8195 221.282 81.248 223.388 81.5989 225.115C81.7406 225.807 81.8688 226.439 81.9836 227.01C72.2092 228.839 62.4686 230.927 53.0081 233.225C50.5485 233.827 48.2643 234.134 46.2197 234.134V234.131Z" fill="#A4B841"/>
<path d="M43.4261 204.581C43.2 211.465 44.7217 216.811 47.9708 220.508L47.9775 220.515L47.9843 220.522C50.5215 223.357 53.8381 224.794 57.843 224.794C58.9901 224.794 60.2148 224.672 61.4801 224.435H61.4902L61.5003 224.432C65.3297 223.672 69.2368 222.938 73.4441 222.188L74.4495 222.009L74.9691 221.13C76.1331 219.163 77.3005 217.2 78.4611 215.254C78.6939 216.423 78.947 217.68 79.2203 219.015C79.723 221.499 80.1515 223.618 80.499 225.321C80.5564 225.598 80.6104 225.865 80.661 226.122C71.2409 227.903 61.8613 229.927 52.7348 232.14C50.3629 232.722 48.1698 233.016 46.213 233.016C43.4801 233.016 41.1824 232.468 39.1951 231.339C37.1674 230.19 35.5007 228.46 34.0971 226.051V226.044L34.087 226.037C32.5215 223.401 31.4486 220.228 30.8952 216.605C30.4026 213.388 30.3149 209.782 30.6321 205.869C34.9474 205.416 39.1648 204.994 43.4227 204.581M45.8115 202.114C39.1108 202.75 33.3346 203.341 28.5942 203.841C28.5942 203.865 28.5841 203.899 28.5841 203.919C27.5483 213.462 28.7292 221.353 32.1773 227.173C35.3927 232.691 40.0791 235.246 46.2163 235.246C48.3858 235.246 50.7374 234.928 53.2679 234.307C63.2278 231.887 73.2349 229.758 83.296 227.896C82.8844 225.855 82.2501 222.756 81.4032 218.565C80.5564 214.429 79.9457 211.252 79.5678 209.09C77.4085 212.668 75.239 216.301 73.0561 219.991C69.0613 220.704 65.0666 221.451 61.0685 222.242C59.9382 222.455 58.8619 222.563 57.8396 222.563C54.5129 222.563 51.7766 221.421 49.6375 219.032C46.3749 215.321 45.1198 209.613 45.8081 202.111L45.8115 202.114Z" fill="#222916"/>
<path d="M90.884 225.429C91.8726 222.705 92.8848 219.91 93.87 217.176L93.9206 217.038L93.9341 216.893C94.4233 211.215 94.9429 205.193 95.4658 199.262C99.2379 199.009 103.017 198.769 106.799 198.539C107.484 200.472 108.287 202.719 109.117 205.004C108.904 207.951 108.678 210.941 108.462 213.831L108.398 214.689L108.439 214.858C109.039 217.389 109.657 219.951 110.281 222.485C103.955 223.327 97.4463 224.314 90.8874 225.429H90.884ZM128.699 220.336C128.875 219.822 129.053 219.302 129.226 218.792L129.452 218.119L128.939 217.629C121.955 210.968 115.649 204.656 109.707 198.367C118.625 197.84 127.545 197.377 136.385 196.985C133.362 198.221 129.927 198.891 126.122 198.985V199.019H116.519L125.882 201.219C127.66 201.638 129.475 202.057 131.226 202.466C132.245 202.702 133.268 202.939 134.286 203.179C139.26 208.147 144.479 213.216 150.171 218.616C142.968 219.052 135.764 219.633 128.699 220.343V220.336Z" fill="#A4B841"/>
<path d="M112.852 199.299L125.626 202.3C127.41 202.719 129.229 203.142 130.99 203.551C131.901 203.764 132.812 203.973 133.726 204.186C138.096 208.545 142.65 212.986 147.553 217.656C141.77 218.035 135.997 218.501 130.309 219.055L130.73 217.798L129.701 216.818C123.375 210.786 117.609 205.038 112.164 199.337C112.393 199.323 112.619 199.31 112.848 199.296M106.03 199.702C106.63 201.385 107.298 203.26 107.987 205.159C107.781 208.032 107.561 210.935 107.349 213.753L107.298 214.432L107.271 214.777L107.352 215.115C107.858 217.251 108.378 219.403 108.901 221.546C103.557 222.269 98.0908 223.097 92.5811 224.013C93.3605 221.867 94.1466 219.691 94.9159 217.552L95.0137 217.278L95.0373 216.987C95.4996 211.621 95.9888 205.947 96.4848 200.31C99.663 200.1 102.841 199.898 106.026 199.702M141.183 195.66C124.387 196.363 108.685 197.255 94.4368 198.211C93.8902 204.409 93.3571 210.597 92.824 216.795C91.6229 220.127 90.4083 223.472 89.1835 226.848C96.6501 225.554 104.14 224.408 111.654 223.425C110.932 220.492 110.217 217.552 109.518 214.595C109.765 211.34 110.008 208.096 110.24 204.842C109.407 202.544 108.58 200.239 107.757 197.917C114.39 204.984 121.192 211.773 128.17 218.43C127.812 219.488 127.447 220.549 127.08 221.617C135.639 220.725 144.219 220.045 152.813 219.566C146.692 213.79 140.714 208.018 134.85 202.152C131.935 201.472 129.03 200.803 126.135 200.124H126.189C126.179 200.1 126.155 200.09 126.145 200.09C132.066 199.945 137.097 198.461 141.183 195.653V195.66Z" fill="#222916"/>
<path d="M187.052 218.444C182.682 218.417 178.637 217.886 175.027 216.862C171.37 215.828 168.043 214.257 165.141 212.195C159.473 208.174 156.339 202.942 155.583 196.228C160.704 196.048 165.975 195.89 171.285 195.761C171.99 201.55 174.44 205.923 178.58 208.772L178.593 208.782C181.178 210.505 184.008 211.387 187.008 211.398H187.096C191.856 211.398 195.794 209.488 198.8 205.717L198.81 205.703C200.979 202.888 202.288 199.381 202.703 195.261C206.324 195.237 210.005 195.224 213.662 195.224C215.275 195.224 216.911 195.224 218.537 195.231C218.068 202.959 214.657 208.782 208.132 213.003C202.437 216.612 195.439 218.444 187.345 218.444C187.247 218.444 187.149 218.444 187.052 218.444Z" fill="#A4B841"/>
<path d="M213.655 196.339C214.873 196.339 216.101 196.339 217.333 196.342C216.621 203.108 213.402 208.265 207.538 212.063C204.768 213.817 201.661 215.149 198.307 216.021C194.967 216.889 191.279 217.328 187.349 217.328C187.254 217.328 187.156 217.328 187.062 217.328C182.79 217.301 178.843 216.784 175.331 215.791C171.795 214.791 168.586 213.277 165.786 211.286C160.738 207.704 157.8 203.115 156.858 197.302C161.268 197.15 165.779 197.018 170.324 196.903C171.221 202.527 173.782 206.825 177.952 209.694L177.966 209.705L177.979 209.715C180.746 211.563 183.786 212.506 187.004 212.52H187.099C192.214 212.52 196.445 210.468 199.674 206.42L199.684 206.406L199.694 206.393C201.816 203.642 203.155 200.279 203.695 196.376C206.992 196.356 210.335 196.346 213.655 196.346M213.655 194.109C209.637 194.109 205.645 194.122 201.681 194.153C201.404 198.512 200.156 202.135 197.929 205.021C195.119 208.542 191.488 210.282 187.096 210.282C187.069 210.282 187.038 210.282 187.011 210.282C184.218 210.272 181.613 209.458 179.211 207.853C175.081 205.011 172.79 200.617 172.287 194.619C166.211 194.764 160.236 194.943 154.368 195.153C154.901 202.699 158.241 208.664 164.497 213.101C170.597 217.437 178.155 219.498 187.045 219.555C187.146 219.555 187.244 219.555 187.345 219.555C195.554 219.555 202.724 217.747 208.736 213.936C215.902 209.299 219.499 202.709 219.698 194.115C217.677 194.109 215.663 194.105 213.652 194.105L213.655 194.109Z" fill="#222916"/>
<path d="M282.592 226.355C273.226 224.668 263.664 223.202 254.143 221.999C244.54 220.772 236.865 216.737 231.335 210.012C227.647 205.545 225.461 200.709 224.671 195.268C229.277 195.298 234.3 195.362 239.962 195.454C240.731 201.003 242.985 205.599 246.838 209.478C250.455 213.054 254.878 215.206 259.99 215.885H260.006C263.529 216.305 267.365 216.805 272.082 217.457L272.841 217.562L273.209 216.889C274.417 214.689 275.608 212.482 276.765 210.299C277.531 212.438 278.479 215.041 279.559 217.974C280.841 221.495 281.843 224.263 282.592 226.358V226.355Z" fill="#A4B841"/>
<path d="M225.987 196.39C229.962 196.42 234.257 196.474 239.004 196.552C239.925 201.925 242.239 206.427 246.045 210.262L246.052 210.269L246.059 210.276C249.844 214.017 254.48 216.274 259.841 216.987H259.858L259.875 216.99C263.391 217.406 267.22 217.906 271.93 218.555L273.448 218.765L274.187 217.42C274.99 215.956 275.786 214.49 276.569 213.03C277.153 214.635 277.804 216.423 278.516 218.349C279.457 220.934 280.247 223.114 280.898 224.915C272.119 223.367 263.188 222.012 254.291 220.887C249.635 220.292 245.414 219.015 241.747 217.089C238.083 215.166 234.871 212.543 232.198 209.292C228.939 205.345 226.898 201.101 225.994 196.383M223.406 194.142C224.05 200.296 226.388 205.771 230.474 210.718C236.24 217.731 244.152 221.843 254.001 223.104C264.129 224.385 274.224 225.946 284.285 227.798C283.486 225.534 282.248 222.114 280.601 217.585C278.955 213.114 277.753 209.782 276.961 207.532C275.402 210.509 273.823 213.452 272.23 216.348C268.202 215.791 264.173 215.257 260.131 214.777C255.256 214.132 251.062 212.09 247.621 208.691C243.747 204.788 241.544 200.063 240.944 194.355C235.056 194.254 229.202 194.176 223.403 194.142H223.406Z" fill="#222916"/>
<path d="M328.781 236.794C326.298 236.794 323.551 236.412 320.613 235.658C312.242 233.492 304.671 229.112 298.112 222.644C294.239 218.812 291.327 214.834 289.208 210.495C287.16 206.301 285.908 201.878 285.392 196.991C290.507 197.248 295.669 197.546 300.764 197.867C300.784 198.103 300.804 198.34 300.828 198.583L300.845 198.759C301.813 208.312 304.917 215.568 310.329 220.941L310.339 220.951C313.102 223.621 315.967 225.294 318.855 225.922C319.766 226.125 320.657 226.226 321.493 226.226C325.124 226.226 328.002 224.354 330.046 220.657L330.056 220.637C332.3 216.372 333.022 210.309 332.192 202.618C332.108 201.824 332.013 201.04 331.902 200.276C336.943 200.736 342.034 201.246 347.071 201.793C347.277 203.023 347.449 204.298 347.584 205.585C349.028 219.052 346.471 228.382 339.989 233.316C336.821 235.658 333.157 236.794 328.778 236.794H328.781Z" fill="#A4B841"/>
<path d="M286.654 198.174C291.01 198.4 295.396 198.651 299.738 198.921C300.74 208.718 303.949 216.179 309.539 221.732L309.55 221.742L309.56 221.752C312.471 224.567 315.515 226.338 318.609 227.007C319.601 227.227 320.572 227.338 321.49 227.338C324.284 227.338 328.204 226.274 331.015 221.194L331.025 221.174L331.035 221.154C333.386 216.69 334.146 210.411 333.295 202.503C333.262 202.172 333.225 201.841 333.184 201.513C337.482 201.912 341.811 202.348 346.103 202.811C346.248 203.757 346.373 204.727 346.474 205.707C347.179 212.283 346.903 217.906 345.654 222.421C344.45 226.774 342.317 230.14 339.318 232.424C336.352 234.614 332.901 235.682 328.774 235.682C326.386 235.682 323.73 235.31 320.886 234.58C312.704 232.461 305.302 228.18 298.888 221.853C295.106 218.109 292.265 214.233 290.2 210.005C288.392 206.305 287.224 202.415 286.647 198.174M284.164 195.815C284.174 196.028 284.198 196.238 284.218 196.451C285.186 206.964 289.515 215.703 297.329 223.438C303.962 229.981 311.675 234.496 320.333 236.736C323.329 237.507 326.146 237.909 328.778 237.909C333.279 237.909 337.243 236.733 340.657 234.208C347.537 228.981 350.162 219.17 348.694 205.47C348.529 203.875 348.306 202.304 348.026 200.776C342.226 200.141 336.416 199.56 330.586 199.036C330.785 200.229 330.954 201.466 331.085 202.736C331.888 210.184 331.22 216.034 329.071 220.116C327.205 223.489 324.672 225.111 321.49 225.111C320.727 225.111 319.924 225.017 319.088 224.831C316.362 224.239 313.7 222.658 311.108 220.15C305.933 215.01 302.896 207.968 301.948 198.647C301.894 198.022 301.837 197.42 301.803 196.819C295.915 196.44 290.028 196.106 284.164 195.815Z" fill="#222916"/>
</g>
<defs>
<clipPath id="clip0_1_434">
<rect width="373" height="407" fill="white"/>
</clipPath>
</defs>
</svg>
