<svg width="457" height="607" viewBox="0 0 457 607" fill="none" xmlns="http://www.w3.org/2000/svg">
<mask id="mask0_1_516" style="mask-type:luminance" maskUnits="userSpaceOnUse" x="57" y="0" width="400" height="412">
<path d="M326.371 360.392C269.468 393.254 190.689 434.014 126.368 396.942C62.2819 360.003 57.9441 272.111 57.9441 206.601C57.9441 141.091 62.0507 52.242 126.305 15.0544C190.322 -21.9965 268.581 18.1881 325.288 50.9416C382.192 83.8107 456.863 131.679 456.93 205.942C456.997 279.932 383.082 327.642 326.371 360.396" fill="white"/>
</mask>
<g mask="url(#mask0_1_516)">
<path d="M456.997 -22.0001H57.9441V434.01H456.997V-22.0001Z" fill="#222916"/>
</g>
<path fill-rule="evenodd" clip-rule="evenodd" d="M377.461 83.9089C419.487 114.061 456.888 153.394 456.933 205.939C456.954 230.304 448.952 251.819 436.183 270.888C436.173 270.73 428.986 139.832 377.461 83.9089Z" fill="#210A3C"/>
<path fill-rule="evenodd" clip-rule="evenodd" d="M428.78 131.048C445.745 152.514 456.905 177.255 456.933 205.939C456.986 269.016 403.275 312.99 352.296 344.885C352.507 344.615 443.205 227.072 428.78 131.048Z" fill="#210A3C"/>
<path fill-rule="evenodd" clip-rule="evenodd" d="M326.371 360.392C269.468 393.254 190.689 434.014 126.368 396.942C108.32 386.535 95.0048 372.086 85.1974 355.236C85.285 355.274 170.027 394.271 348.365 347.324C340.884 351.93 333.487 356.28 326.371 360.392Z" fill="#210A3C"/>
<path fill-rule="evenodd" clip-rule="evenodd" d="M252.957 396.98C210.924 413.101 165.913 419.73 126.372 396.942C75.6353 367.697 62.352 306.512 59.0128 249.786C59.1564 250.049 145.377 409.512 252.957 396.98Z" fill="#210A3C"/>
<path fill-rule="evenodd" clip-rule="evenodd" d="M57.9441 206.598C57.9441 140.87 62.0507 52.2385 126.305 15.0509C167.07 -8.54321 213.608 -0.814048 256.682 16.3654C256.139 16.2953 126.887 0.128876 57.9476 206.598" fill="#FDCD0B"/>
<path fill-rule="evenodd" clip-rule="evenodd" d="M75.6598 76.6003C85.7685 51.2886 101.578 29.356 126.305 15.0509C190.322 -22 268.581 18.1847 325.288 50.9381C346.133 62.9753 369.353 77.0315 390.422 93.6501C204.134 16.0044 76.0873 76.397 75.6598 76.6003Z" fill="#FCCD0E"/>
<path fill-rule="evenodd" clip-rule="evenodd" d="M290.249 294.742C170.854 363.701 135.573 344.461 135.573 206.545C135.573 68.6293 169.869 47.6747 289.265 116.634C408.66 185.594 409.645 225.778 290.249 294.742Z" fill="#FDCD0B"/>
<path fill-rule="evenodd" clip-rule="evenodd" d="M279.51 276.416C210.367 316.348 169.431 326.706 147.224 301.559C165.566 347.91 207.904 342.305 290.249 294.745C372.581 247.192 397.668 213.321 366.165 174.258C377.496 206.114 348.74 236.428 279.51 276.416Z" fill="#A3B740"/>
<path fill-rule="evenodd" clip-rule="evenodd" d="M156.81 206.405C156.81 126.53 168.313 85.8893 201.187 79.2188C151.887 71.9383 135.573 111.422 135.573 206.545C135.573 301.668 152.353 340.321 201.916 332.553C168.667 326.443 156.807 286.374 156.807 206.405" fill="#A3B740"/>
<path fill-rule="evenodd" clip-rule="evenodd" d="M278.522 134.963C209.379 95.0277 168.443 84.673 146.235 109.82C164.578 63.4695 206.916 69.0745 289.261 116.634C371.592 164.187 396.684 198.059 365.177 237.122C376.508 205.266 347.755 174.952 278.522 134.963Z" fill="#322B7D"/>
<path d="M309.507 253.323C281.56 289.533 229.148 296.799 192.207 267.761L186.317 267.551L186.684 272.935L181.485 271.957L181.04 277.233C170.283 267.604 154.774 252.38 170.92 242.671C162.84 228.025 159.582 211.47 160.864 195.686C160.85 195.661 160.836 195.644 160.822 195.623C152.57 183.936 158.45 156.43 166.628 154.972C168.387 154.663 170.255 156.006 172.339 159.09C172.315 159.262 177.112 159.013 177.01 159.609C184.333 144.484 196.516 122.867 219.66 113.311C223.801 111.594 227.883 110.346 231.485 109.568C237.912 108.176 242.82 108.285 243.83 109.95C250.245 120.508 264.517 139.902 280.978 145.753C280.978 145.753 286.251 141.599 292.46 144.326C298.666 147.053 296.623 153.626 296.623 153.626C296.623 153.626 299.927 155.01 304.741 156.991C310.428 159.336 306.742 173.949 295.467 169.413C295.467 169.413 294.612 176.081 288.532 175.646C282.45 175.208 280.046 171.836 275.834 171.387C271.626 170.942 265.344 169.123 261.51 167.237C261.51 167.237 245.084 173.841 228.525 165.912C225.946 164.678 223.318 163.104 220.725 161.32C201.177 185.422 216.748 189.983 229.891 184.146L228.209 188.353L232.733 189.145L229.982 193.299L235.546 194.634C228.77 202.093 214.569 204.095 206.762 197.491C206.233 206.91 207.845 216.209 211.334 224.723C224.572 212.329 235.27 230.889 241.829 243.578L236.615 242.692L236.258 247.971L231.138 246.267L230.319 249.99C253.129 268.165 284.699 268 307.135 251.076L309.524 253.316L309.507 253.323Z" fill="#A3B740"/>
<path d="M216.51 201.68C217.746 201.83 219.071 201.855 220.497 201.718C219.751 206.745 219.53 211.87 219.849 217.019C219.849 217.033 219.849 217.047 219.849 217.057C219.926 218.263 220.035 219.469 220.171 220.675C216.664 220.643 213.773 222.245 211.587 224.131C210.006 220.174 208.829 216.048 208.076 211.792C207.245 207.102 206.958 202.335 207.21 197.603C209.179 199.243 212.305 201.161 216.51 201.676V201.68Z" fill="#FDCD0B"/>
<path d="M234.52 168.425C234.464 168.502 234.404 168.579 234.351 168.653C233.78 169.41 233.223 170.178 232.684 170.956C232.522 171.194 232.354 171.432 232.197 171.671C232.049 171.881 231.916 172.091 231.776 172.305C229.039 176.431 226.755 180.799 224.94 185.327C223.048 185.629 221.405 185.766 219.968 185.787C212.28 185.888 210.798 182.443 210.595 180.392C212.999 173.529 216.615 167.093 221.226 161.456C224.043 163.255 229.562 166.578 234.516 168.425H234.52Z" fill="#FDCD0B"/>
<path d="M220.497 201.718C220.693 201.704 220.886 201.68 221.086 201.652C220.045 208.157 219.842 213.664 219.849 217.019C219.849 217.033 219.849 217.047 219.849 217.057C219.856 219.252 219.947 220.514 219.947 220.514L216.604 220.089C215.83 213.359 215.907 207.2 216.506 201.68C217.743 201.83 219.068 201.855 220.494 201.718H220.497Z" fill="#D6AC29"/>
<path d="M234.758 168.116C234.618 168.292 234.481 168.471 234.348 168.653C233.766 169.406 233.209 170.178 232.68 170.959C232.508 171.198 232.347 171.436 232.197 171.674C232.049 171.885 231.913 172.092 231.776 172.305C229.068 176.494 226.962 180.897 225.332 185.268C225.199 185.292 225.07 185.31 224.94 185.327C223.048 185.629 221.401 185.769 219.968 185.787C223.538 175.134 228.265 169.284 228.265 169.284C228.265 169.284 223.037 167.023 221.503 162.641L223.447 162.806L234.754 168.116H234.758Z" fill="#D6AC29"/>
<path d="M207.147 202.71C211.748 206.594 220.718 206.026 220.718 206.026L220.234 201.648C220.234 201.648 207.322 199.391 206.877 197.456C206.436 195.521 205.483 201.308 207.144 202.714L207.147 202.71Z" fill="#D6AC29"/>
<path d="M276.896 143.986C276.896 143.986 259.496 139.373 248.202 124.188C241.983 115.825 239.856 110.069 233.836 108.726C233.836 108.726 233.85 108.653 233.878 108.516C238.868 107.983 242.621 108.47 243.823 109.95C250.946 118.741 262.379 136.558 276.896 143.986Z" fill="#D5E185"/>
<path d="M159.543 194.182C159.543 194.182 155.02 165.922 169.337 156.973C169.337 156.973 167.105 151.785 163.352 156.069C159.599 160.352 152.276 175.944 159.543 194.178V194.182Z" fill="#D5E185"/>
<path d="M201.075 187.774C201.075 187.774 200.83 198.465 206.355 202.069L206.881 197.452C206.881 197.452 203.016 194.262 201.075 187.774Z" fill="#667D36"/>
<path d="M234.134 138.998C227.41 136.348 224.8 122.716 224.8 122.716C224.8 122.716 220.112 132.499 227.309 139.864C234.639 147.369 248.003 145.069 248.003 145.069L239.201 140.631C237.677 140.246 235.963 139.72 234.134 138.998Z" fill="#667D36"/>
<path d="M236.983 139.997C236.089 139.643 235.168 139.229 234.25 138.767C228.956 136.089 227.267 128.461 226.867 126.141C227.617 126.737 229.106 127.792 231.135 128.591C232.855 129.267 234.6 129.614 236.324 129.618C236.951 129.618 237.589 129.748 238.22 129.996C242.775 131.791 245.827 139.187 245.774 141.476C245.01 141.602 241.892 141.932 236.983 140.001V139.997Z" fill="#FDCD0B"/>
<path d="M213.328 154.025C224.46 159.122 239.818 170.093 261.556 165.915C261.556 165.915 252.011 173.097 235.823 169.105C219.635 165.112 213.328 154.025 213.328 154.025Z" fill="#667D36"/>
<path d="M248.003 145.069L245.137 143.832C245.084 143.811 243.514 143.173 234.544 140.603C230.651 139.489 227.75 136.436 226.152 131.777C224.986 128.373 224.923 125.317 224.919 125.187L224.88 122.863L226.801 124.174C226.878 124.227 231.675 127.452 236.503 128.167C238.598 128.479 240.469 129.583 242.057 131.448C243.287 132.892 244.355 134.806 245.231 137.133C245.561 138.006 245.771 138.903 245.977 139.769C246.195 140.688 246.401 141.553 246.71 142.226L248.006 145.069H248.003ZM227.561 127.438C228.094 130.775 229.793 136.737 235.203 138.29C239.527 139.531 242.162 140.327 243.753 140.831C243.71 140.663 243.672 140.495 243.633 140.327C243.444 139.531 243.248 138.711 242.975 137.981C241.275 133.47 238.98 130.967 236.146 130.547C232.806 130.053 229.583 128.549 227.561 127.438Z" fill="#222916"/>
<path d="M298.035 155.115C303.473 159.132 304.727 160.85 301.364 169.035C301.364 169.035 302.229 170.447 304.987 167.955C307.744 165.466 308.967 160.31 306.325 158.235C303.683 156.16 298.038 155.115 298.038 155.115H298.035Z" fill="#D5E185"/>
<path d="M285.109 149.465C285.109 149.465 287.614 145.928 290.712 148.031C293.007 149.591 291.815 152.108 291.815 152.108L285.109 149.465Z" fill="#222916"/>
<path d="M238.696 130.897C238.696 130.897 234.492 132.71 235.623 136.685C235.623 136.685 231.888 133.666 234.404 129.572L238.7 130.894L238.696 130.897Z" fill="#222916"/>
<path d="M295.456 169.413C295.456 169.413 291.763 171.506 284.265 168.506C276.766 165.505 277.057 169.214 269.674 165.204C262.292 161.194 263.157 161.846 249.45 159.318C235.746 156.791 233.045 148.326 233.045 148.326C248.357 161.106 260.189 156.272 266.321 160.068C277.993 167.289 285.568 162.809 293.82 168.218L295.456 169.417V169.413Z" fill="#D5E185"/>
<path d="M238.038 151.985C238.038 151.985 238.581 157.278 239.926 158.368C241.272 159.458 244.583 155.319 244.583 155.319L238.038 151.982V151.985Z" fill="#FDCD0B"/>
<path d="M280.582 165.218C280.582 165.218 282.73 170.086 284.349 170.707C285.968 171.327 287.839 166.371 287.839 166.371L280.582 165.218Z" fill="#FDCD0B"/>
<path d="M295.032 169.077C294.626 168.765 294.223 168.478 293.823 168.215C285.572 162.806 277.996 167.289 266.325 160.065C260.193 156.272 248.36 161.106 233.048 148.326C242.838 153.002 251.51 154.807 255.231 154.593C258.956 154.379 264.128 153.513 269.359 158.183C274.59 162.852 287.46 160.92 291.272 162.981C295.081 165.042 295.032 169.08 295.032 169.08V169.077Z" fill="#667D36"/>
<path d="M210.353 226.949C218.342 222.866 225.953 221.989 234.513 233.504L233.339 229.501C233.339 229.501 225.865 219.153 219.194 220.759C212.522 222.368 210.357 226.949 210.357 226.949H210.353Z" fill="#D5E185"/>
<path d="M182.567 257.94C182.567 257.94 232 300.992 292.029 268.992C292.029 268.992 275.162 287.338 236.804 285.396C198.447 283.455 182.567 257.936 182.567 257.936V257.94Z" fill="#667D36"/>
<path d="M174.088 241.777C168.131 247.771 164.719 250.557 170.178 264.147C170.178 264.147 167.381 264.687 165.745 259.703C164.109 254.718 161.081 249.709 169.641 243.382L174.088 241.777Z" fill="#667D36"/>
<path d="M226.937 188.398C226.461 188.819 214.264 191.08 209.537 187.687C204.162 183.834 209.835 174.864 213.875 169.648C207.407 181.689 211.888 188.962 228.016 185.166C228.016 185.166 228.682 186.859 226.937 188.402V188.398Z" fill="#D5E185"/>
<path d="M257.544 138.507C245.511 135.086 230.763 115.534 228.493 112.074C226.219 108.614 215.476 120.052 207.074 128.927C213.3 117.728 222.68 107.072 228.258 105.936C233.57 104.853 240.806 126.908 257.544 138.507Z" fill="#D5E185"/>
<path d="M194.547 133.859C194.547 133.859 167.21 165.943 181.726 210.664C196.24 255.384 244.607 270.892 244.607 270.892C244.607 270.892 192.596 265.381 176.201 213.952C159.806 162.522 190.5 135.412 194.551 133.859H194.547Z" fill="#D5E185"/>
<path d="M172.15 192.166C172.115 191.633 172.094 191.097 172.073 190.575C172.241 191.062 172.262 191.662 172.15 192.166Z" fill="#FDCD0B"/>
<path d="M172.077 190.575C169.424 186.716 162.108 185.58 162.896 181.643C163.685 177.71 171.695 178.25 173.054 174.843C172.276 179.673 171.873 184.949 172.077 190.575Z" fill="#FDCD0B"/>
<path d="M173.054 174.836C173.117 174.475 173.173 174.118 173.24 173.76C173.25 174.121 173.187 174.5 173.054 174.836Z" fill="#FDCD0B"/>
<path d="M172.15 192.166C172.424 197.119 173.173 202.342 174.557 207.768C172.876 204.473 165.262 205.837 164.365 201.392C163.397 196.99 171.309 195.742 172.15 192.166Z" fill="#FDCD0B"/>
<path d="M174.908 209.079C174.785 208.641 174.67 208.203 174.561 207.768C174.778 208.164 174.89 208.634 174.908 209.079Z" fill="#FDCD0B"/>
<path d="M164.725 164.071C164.417 159.592 171.768 160.598 175.178 159.714C176.239 159.441 177.098 159.013 177.522 158.207C175.843 162.61 174.267 167.843 173.236 173.764C173.114 170.23 164.925 168.004 164.722 164.075L164.725 164.071Z" fill="#FDCD0B"/>
<path d="M177.525 158.204C177.602 157.993 177.683 157.79 177.763 157.583C177.704 157.825 177.606 158.056 177.525 158.204Z" fill="#FDCD0B"/>
<path d="M180.497 224.131C178.236 221.169 171.852 223.826 170.006 219.676C168.254 215.441 175.339 212.539 174.904 209.079C176.295 214.225 178.159 219.185 180.497 224.128V224.131Z" fill="#FDCD0B"/>
<path d="M181.117 225.403C180.914 224.983 180.703 224.559 180.497 224.131C180.784 224.499 181.012 225 181.117 225.403Z" fill="#FDCD0B"/>
<path d="M185.209 143.166C184.512 144.147 180.991 149.321 177.763 157.587C178.594 154.064 170.171 149.924 170.658 145.837C171.456 140.046 182.704 146.352 185.209 143.166Z" fill="#FDCD0B"/>
<path d="M181.117 225.403C183.548 230.328 186.26 234.717 189.158 238.625C186.789 236.848 181.691 239.842 179.197 236.347C176.639 232.635 182.108 228.965 181.117 225.403Z" fill="#FDCD0B"/>
<path d="M190.809 240.774C190.255 240.073 189.701 239.358 189.158 238.629C189.866 239.06 190.518 239.838 190.809 240.774Z" fill="#FDCD0B"/>
<path d="M200.917 251.332C197.879 250.368 194.498 253.47 191.527 250.698C188.436 247.743 191.933 243.599 190.809 240.774C194.022 244.812 197.431 248.307 200.917 251.332Z" fill="#FDCD0B"/>
<path d="M203.321 253.33C202.515 252.685 201.716 252.019 200.917 251.332C202.154 251.721 203.114 252.853 203.321 253.33Z" fill="#FDCD0B"/>
<path d="M203.321 253.33C207.484 256.653 211.716 259.342 215.819 261.529C212.564 260.565 210.073 264.277 206.432 262.093C203.002 260.088 204.887 256.054 203.321 253.334V253.33Z" fill="#FDCD0B"/>
<path d="M217.575 262.433C216.993 262.139 216.408 261.837 215.819 261.529C216.503 261.722 217.224 262.135 217.575 262.433Z" fill="#FDCD0B"/>
<path d="M309.051 252.899C304.51 257.291 301.034 257.347 297.191 261.329C290.533 268.066 286.784 263.527 281.059 268.887C273.564 275.585 270.663 267.285 263.679 272.848C262.978 273.405 261.938 274.327 260.137 274.635C254.951 275.533 254.863 271.894 250.326 271.617C245.487 271.277 244.811 275.999 239.621 273.976C236.478 272.683 236.622 269.051 232.298 268.375C231.664 268.273 231.093 268.266 230.382 268.441C228.013 269.034 226.503 271.183 223.202 270.078C219.141 268.62 220.396 264.509 217.568 262.43C248.991 278.165 283.133 272.574 308.564 252.443L309.044 252.895L309.051 252.899Z" fill="#FDCD0B"/>
<path d="M185.332 142.991C186.429 141.925 180.132 133.326 182.515 130.207C184.894 127.087 193.237 134.536 196.362 130.466C192.21 138.402 184.859 143.404 185.335 142.994L185.332 142.991Z" fill="#FDCD0B"/>
<path d="M193.969 210.909C193.3 209.836 192.722 208.704 192.189 207.555C191.657 206.405 191.18 205.227 190.745 204.032C189.877 201.645 189.19 199.184 188.671 196.685C187.641 191.686 187.308 186.519 187.736 181.405C188.156 176.291 189.354 171.24 191.271 166.501L191.642 165.617L191.832 165.176L192.031 164.741L192.431 163.872L192.855 163.013L193.069 162.585L193.293 162.161L193.741 161.316L194.211 160.485C194.369 160.209 194.523 159.932 194.691 159.662C195.024 159.122 195.35 158.575 195.704 158.049C195.879 157.786 196.05 157.52 196.229 157.257L196.776 156.479C197.133 155.957 197.529 155.459 197.907 154.954C198.097 154.702 198.303 154.46 198.5 154.215C198.699 153.969 198.899 153.727 199.102 153.485C198.811 154.05 198.5 154.593 198.212 155.154L197.778 155.988C197.708 156.128 197.631 156.265 197.561 156.405L197.35 156.826L196.93 157.664C196.793 157.944 196.66 158.228 196.527 158.509C196.254 159.069 195.998 159.641 195.742 160.205C195.609 160.485 195.49 160.773 195.367 161.06L194.999 161.919L194.649 162.781L194.474 163.213L194.309 163.647C193.853 164.8 193.454 165.975 193.062 167.146C191.534 171.85 190.553 176.697 190.146 181.601C189.733 186.505 189.891 191.458 190.542 196.366C190.865 198.819 191.317 201.266 191.884 203.692C192.455 206.117 193.125 208.529 193.98 210.906L193.969 210.909Z" fill="#667D36"/>
<path d="M309.675 250.827C308.54 249.727 306.777 249.607 305.512 250.557C301.959 253.218 297.909 255.588 293.137 257.452C276.71 264.098 257.877 263.948 241.608 255.577C238.108 253.8 234.786 251.683 231.692 249.264L232.007 247.834C234.523 248.672 235.326 248.938 235.837 249.106C236.598 249.359 237.386 248.829 237.438 248.03C237.474 247.497 237.53 246.67 237.705 244.101C240.207 244.528 240.97 244.658 241.601 244.763C242.589 244.931 243.346 243.904 242.898 243.011C239.338 235.905 231.352 220.384 221.492 219.522C220.946 213.948 221.044 208.378 221.78 202.921C227.358 202.454 232.996 199.629 236.471 195.409C237.05 194.704 236.685 193.642 235.799 193.439C235.259 193.316 234.555 193.141 232.316 192.604C233.602 191.258 234.012 190.827 234.355 190.466C235.007 189.779 234.667 188.643 233.745 188.433C232.134 188.062 232.743 188.202 229.316 187.41C230.284 185.825 230.578 185.338 230.918 184.781C231.531 183.771 230.501 182.562 229.411 183.014C228.581 183.357 228.129 183.494 227.176 183.74C229.411 178.66 232.204 173.918 235.438 169.606C244.376 172.347 253.241 171.93 261.458 168.572C268.932 172.025 275.75 172.421 277.141 172.908C280.319 173.932 285.183 177.7 290.603 176.736C292.797 176.392 295.179 174.566 296.251 171.257C304.489 174.934 310.271 164.229 308.151 158.687C307.065 155.865 305.761 156.553 298.13 152.406C298.568 143.078 287.103 138.539 280.68 144.337C280.68 144.337 280.677 144.34 280.677 144.347C268.623 139.692 258.5 127.15 250.729 116.936C244.261 108.414 244.443 107.685 239.895 107.202C237.754 106.977 235.294 107.107 233.167 107.377C230.431 104.271 227.326 101.765 218.29 111.72C208.794 115.523 201.177 122.197 194.442 129.569C191.954 132.443 184.617 125.419 181.548 129.46C178.899 132.937 183.773 140.102 184.228 142.44C182.389 144.529 170.328 138.598 169.445 145.679C168.983 149.353 172.157 151.831 174.074 154.481C173.58 155.231 173.054 156.02 172.515 156.879C167.105 150.04 162.704 154.316 158.734 161.958C156.509 166.234 155.272 172.884 155.423 179.73C155.57 186.533 157.01 192.436 159.379 196.057C159.379 196.057 159.377 196.061 159.375 196.068C158.842 201.052 159.298 210.552 160.072 214.891C162.052 228.453 166.411 236.838 169.21 242.572C167.823 243.473 166.47 244.588 165.412 245.857C156.663 256.376 170.798 269.661 180.213 278.102C180.963 278.775 182.157 278.295 182.245 277.292C182.354 275.995 182.459 274.782 182.578 273.387C185.209 273.878 185.805 273.99 186.439 274.109C187.224 274.257 187.939 273.622 187.886 272.823C187.795 271.488 187.729 270.499 187.613 268.792L191.352 268.929C216.219 289.922 259.257 295.113 292.478 271.666C300.046 266.342 305.631 260.733 309.994 255.156C311.01 253.856 310.894 251.998 309.71 250.848L309.685 250.824L309.675 250.827ZM180.984 255.584C177.707 257.014 176.555 260.309 179.239 263.527C178.436 261.547 178.443 259.545 180.3 258.511C183.103 261.683 185.409 263.867 188.3 266.419C187.077 266.373 186.691 266.359 186.373 266.349C185.647 266.324 185.062 266.931 185.111 267.656C185.15 268.196 185.22 269.255 185.37 271.463C184.018 271.214 182.991 271.021 181.719 270.783C181.008 270.65 180.335 271.158 180.276 271.88C180.234 272.367 180.188 272.925 180.041 274.642C175.178 270.047 168.825 263.769 166.302 257.81C161.621 246.894 172.357 243.519 176.67 239.957C175.227 240.007 173.261 240.459 171.327 241.37C162.714 224.271 159.175 206.808 163.229 186.046C165.135 188.041 170.917 189.131 170.994 191.441C171.148 194.546 161.971 196.054 163.166 201.652C164.095 206.072 169.768 206.002 172.332 207.33C176.344 209.444 170.573 212.809 169.021 216.104C168.282 217.678 168.422 218.845 168.892 220.17C171.863 226.83 183.888 219.879 178.653 229.925C177.413 232.33 176.513 234.794 178.201 237.059C181.677 241.938 188.107 236.806 189.666 241.209C189.757 241.503 189.796 241.829 189.789 242.215C189.775 244.896 187.157 249.215 191.513 252.243C193.605 253.579 195.749 253.046 197.529 252.664C200.602 251.991 200.774 252.506 201.944 253.481C203.864 255.689 201.481 260.583 205.802 263.138C210.592 266.019 213.244 260.807 216.755 263.345H216.765C219.288 265.185 217.981 269.388 222.82 271.242C228.188 273.04 229.474 267.81 233.826 270.187C235.753 271.256 236.601 274.355 239.173 275.119C243.805 276.935 246.433 273.713 248.104 273.107C249.492 272.592 251.268 272.841 252.407 273.384C254.257 274.257 255.571 276.304 259.446 275.964C264.17 275.568 264.065 272.732 268.021 272.164C272.544 271.596 273.564 274.362 279.026 271.821C281.605 270.59 281.819 269.335 284.103 268.2C288.809 265.816 290.109 268.024 295.547 264.337C298.375 262.521 297.317 261.69 304.584 257.684C272.979 292.747 215.476 295.366 180.973 255.591L180.984 255.584ZM181.141 258.185L181.124 258.174C181.124 258.174 181.152 258.171 181.141 258.185ZM170.934 158.785C169.515 159.041 167.946 159.301 166.639 159.777C163.306 160.994 161.807 164.748 166.257 168.523C162.735 176.89 160.959 182.779 159.838 191.595C158.65 188.409 157.924 184.234 157.826 179.687C157.683 173.22 158.821 167.009 160.868 163.079C165.721 153.727 168.051 154.912 170.934 158.789V158.785ZM171.632 177.788C171.25 181.069 171.068 184.36 171.085 187.648C168.72 186.05 163.646 184.7 164.074 181.78C164.351 179.901 167.809 180.052 171.632 177.788ZM165.465 177.521C166.537 174.104 167.539 171.769 168.271 170.041C173.363 173.602 173.419 174.801 167.728 176.701C166.943 176.964 166.19 177.22 165.465 177.521ZM171.463 195.226C171.782 198.472 172.294 201.718 172.998 204.936C170.178 203.709 166.067 203.643 165.563 201.143L165.552 201.133C165.041 198.739 169.14 197.266 171.463 195.223V195.226ZM172.809 170.504C170.693 168.39 166.828 166.637 166.036 164.46C164.869 160.997 171.912 161.758 175.374 160.924C174.316 164.148 173.492 167.198 172.809 170.504ZM174.988 212.423C175.969 215.561 177.168 218.722 178.405 221.569C175.612 220.878 172.189 221.527 171.127 219.196C170.188 216.91 173.135 215.038 174.988 212.423ZM181.912 228.8C183.415 231.583 185.038 234.251 186.779 236.803C184.225 236.733 180.363 237.777 179.768 234.647C179.442 232.957 181.082 230.886 181.912 228.8ZM192.08 243.736C193.997 245.983 195.931 248.027 198.086 250.063C197.785 250.116 197.21 250.231 196.741 250.34C195.388 250.621 194.015 250.95 192.848 250.196C190.742 248.777 191.446 246.796 192.08 243.736ZM205.266 256.082C207.459 257.712 209.747 259.244 212.112 260.66C210.655 261.175 208.041 262.574 206.191 260.302C205.357 259.254 205.406 257.971 205.266 256.082ZM220.749 265.157C223.3 266.31 225.76 267.271 228.076 268.07C226.198 269.09 225.248 269.475 223.609 268.929C221.811 268.284 221.405 267.046 220.749 265.157ZM237.866 270.853C240.15 271.365 242.596 271.81 244.874 272.168C244.064 272.686 242.996 273.394 241.286 273.142H241.272C239.355 272.876 238.794 272.02 237.876 270.864C237.876 270.86 237.873 270.86 237.866 270.853ZM256.069 272.813C257.936 272.777 259.986 272.676 262.183 272.469C260.596 273.633 258.045 274.046 256.069 272.813ZM274.485 270.45C275.778 270.141 277.061 269.801 278.336 269.433C276.984 270.191 275.112 270.541 274.485 270.45ZM218.784 214.789C215.098 216.255 211.17 215.522 209.765 215.182C209.193 212.784 208.808 210.59 208.517 208.196C210.721 209.097 214.477 210.229 218.798 209.801C218.735 211.456 218.731 213.124 218.784 214.789ZM218.91 217.306C218.959 218.046 219.015 218.778 219.085 219.515C216.391 219.823 214.138 221.036 212.084 222.739C211.464 221.116 210.921 219.458 210.444 217.786C213.248 218.277 216.215 218.2 218.91 217.31V217.306ZM218.917 207.365C213.997 207.958 209.737 206.163 208.247 205.43C208.1 203.446 208.051 201.459 208.1 199.485C211.257 201.641 215.437 202.85 219.351 202.991C219.162 204.442 219.022 205.9 218.917 207.369V207.365ZM213.188 176.449C214.929 178.142 218.927 181.307 225.171 182.341C224.877 183 224.59 183.652 224.313 184.314C217.302 185.387 210.171 184.763 212.512 178.064C212.725 177.521 212.957 176.981 213.188 176.449ZM226.229 180.07C219.257 179.13 215.199 175.124 214.271 174.107C215.038 172.523 215.882 170.963 216.786 169.445C218.479 171.103 222.463 174.317 228.731 175.386C227.834 176.922 227 178.482 226.229 180.07ZM230.091 173.154C223.349 172.298 219.295 168.586 218.104 167.342C219.138 165.764 220.192 164.282 221.499 162.655C225.056 165.169 228.931 167.272 233.055 168.797C231.853 170.426 231.002 171.709 230.094 173.154H230.091ZM228.437 107.212C229.103 106.991 230.231 108.029 231.478 109.568C233.605 112.172 236.089 116.224 237.351 118.142C245.802 130.859 251.409 135.622 257.046 139.222H257.05L257.186 139.314L257.204 139.324C260.564 141.385 264.426 143.064 268.336 143.807C251.142 136.593 242.891 120.532 234.979 109.634C236.976 109.48 240.799 109.343 242.495 110.405C245.606 112.274 260.561 139.769 281.3 147.172C287.572 140.533 296.893 146.229 295.628 152.844L295.491 153.741C305.102 159.073 305.221 157.832 305.873 159.574C306.847 162.119 305.2 166.813 302.306 168.712C298.683 171.131 295.477 167.84 294.433 167.142C285.768 161.534 278.259 165.792 267.474 159.465C259.04 154.74 249.604 160.738 233.073 148.294H233.062L232.312 147.712C234.113 149.395 235.182 150.275 236.797 151.473C237 153.268 237.673 158.102 239.162 159.308C241.069 160.839 243.816 158.144 245.375 156.248C254.933 160.002 261.065 158.112 266.342 161.372C271.377 164.443 275.098 165.235 279.611 165.908H279.615C280.55 167.864 282.355 171.24 283.911 171.832C286.129 172.68 287.867 169.466 288.764 167.282C290.691 167.84 292.471 168.733 294.107 169.911C293.144 173.651 290.771 175.19 286.413 174.114C281.773 173.02 280.698 170.966 275.981 170.188C271.1 169.47 266.629 168.348 261.549 165.919C258.136 167.219 255.039 168.211 251.044 168.66C234.443 170.472 218.241 159.872 210.802 151.522C212.337 154.8 216.299 158.698 219.548 161.225C216.257 165.354 213.419 169.943 211.121 175.106H211.117C205.76 185.997 215.392 188.92 227.172 186.249C226.871 186.744 226.597 187.196 226.359 187.585C225.925 188.296 226.317 189.225 227.13 189.411C227.687 189.537 228.493 189.723 231.114 190.333C229.842 191.665 229.432 192.096 229.085 192.461C228.433 193.144 228.766 194.273 229.684 194.494C230.227 194.623 230.9 194.785 233.059 195.304C221.979 204.831 204.803 200.688 201.036 186.372C200.833 189.734 202.529 194.501 205.742 197.575C205.269 206.51 206.734 215.806 210.175 224.496C208.706 226.034 207.414 228.096 206.818 230.048C207.953 229.224 209.477 227.759 211.457 225.933C223.206 215.126 231.808 227.945 239.548 241.983C237.775 241.686 237.211 241.591 236.811 241.521C236.096 241.398 235.438 241.92 235.389 242.642C235.357 243.123 235.305 243.901 235.136 246.344C232.726 245.545 231.986 245.299 231.513 245.142C230.823 244.914 230.091 245.335 229.933 246.043C229.723 247 229.881 246.298 229.597 247.574C226.359 244.798 223.514 241.815 221.075 238.692C222.424 237.868 224.555 237.686 227.435 239.761C224.18 235.702 220.031 236.151 218.57 237.644H218.566L217.782 238.394C230.361 255.062 247.302 263.576 266.615 264.642C276.297 265.427 292.607 261.88 301.875 255.833C285.554 266.752 263.956 272.651 244.565 269.661C188.275 260.351 164.894 207.411 176.492 165.614C182.543 145.483 200.886 123.687 214.498 116.305C210.297 121.875 206.849 128.072 204.726 133.505C205.507 132.107 206.947 129.625 207.333 129.071C210.613 123.848 215.217 117.759 219.649 113.322C222.859 110.107 225.97 107.755 228.433 107.223L228.437 107.212ZM286.388 166.735C286.087 167.408 285.246 169.101 284.654 169.512C284.142 169.154 283.227 167.794 282.404 166.217C283.438 166.332 285.046 166.49 286.388 166.735ZM243.073 155.238C242.134 156.279 241.086 157.169 240.588 157.327C240.193 156.801 239.72 155.108 239.425 153.244C240.417 153.874 241.741 154.604 243.073 155.238ZM220.259 239.39V239.404H220.248C220.248 239.404 220.252 239.393 220.259 239.39ZM191.958 132.825C189.743 135.174 187.757 138.507 186.194 140.631C185.952 140.022 185.647 139.331 185.293 138.542C179.41 125.433 185.854 132.377 191.958 132.825ZM173.524 149.272C171.569 147.008 170.945 144.81 173.832 144.519C176.215 144.28 179.572 145.329 182.364 145.353C181.821 146.268 181.288 147.228 180.773 148.199C179.719 150.18 178.748 152.231 177.939 154.144C177.676 153.759 177.347 153.359 176.989 152.949C175.906 151.722 174.519 150.425 173.524 149.272Z" fill="#222916"/>
<path d="M269.415 152.209C269.086 152.858 268.136 153.152 267.292 152.872C266.451 152.592 266.034 151.841 266.367 151.193C266.696 150.544 267.646 150.25 268.49 150.53C269.331 150.811 269.748 151.561 269.415 152.209Z" fill="#667D36"/>
<path d="M284.832 157.53C284.643 158.526 283.462 159.266 282.194 159.181C280.929 159.097 280.056 158.225 280.249 157.229C280.438 156.234 281.619 155.494 282.888 155.578C284.153 155.662 285.025 156.535 284.832 157.53Z" fill="#667D36"/>
<path d="M276.22 157.818C275.165 158.614 273.539 158.365 272.593 157.264C271.647 156.163 271.735 154.625 272.789 153.829C273.844 153.033 275.47 153.282 276.416 154.383C277.362 155.483 277.274 157.022 276.22 157.818Z" fill="#667D36"/>
<path d="M118.246 603.722C118.716 594.079 118.621 585.376 118.996 575.827C119.557 563.661 120.212 551.585 121.147 539.414L121.242 538.573L122.083 538.478C125.731 538.198 129.567 537.823 133.218 537.823C140.797 537.823 149.126 538.664 156.144 541.567C164.754 545.125 168.121 552.237 167.935 559.819C167.84 563.843 167.56 567.962 164.379 571.894C158.205 579.476 148.94 582.565 139.676 583.406C138.555 583.5 138.46 584.436 138.46 585.372C138.46 585.933 138.555 586.494 138.555 587.055C138.741 588.366 138.835 589.677 138.93 590.984C139.49 595.853 140.051 599.877 140.612 604.746L140.706 605.682L139.771 605.871C136.589 606.337 133.783 606.618 130.506 606.618C126.764 606.618 122.272 606.243 118.81 604.651L118.155 604.371L118.25 603.715L118.246 603.722ZM136.771 565.718C146.596 564.036 150.058 561.789 150.338 557.95V557.575C150.338 551.774 140.233 549.433 135.93 549.247L136.771 565.722V565.718Z" fill="#FECF0A"/>
<path d="M188.317 539.79C189.855 541.006 190.518 585.751 190.847 586.687C191.289 587.717 211.625 584.16 215.143 584.065C216.352 587.903 216.461 600.074 214.814 603.908C214.814 603.908 170.286 606.436 164.568 605.405C164.568 605.405 169.736 540.631 170.065 537.543C176.772 537.353 186.996 538.664 188.314 539.79H188.317Z" fill="#FECF0A"/>
<path d="M233.055 568.34C238.297 555.7 244.471 544.098 246.997 540.725C247.838 539.6 247.838 539.32 249.054 539.32C251.111 539.225 263.557 538.759 266.833 539.225C268.143 539.414 268.329 539.881 268.89 541.097C270.386 544.185 271.696 547.932 273.192 551.301C280.586 567.776 287.509 585.653 289.755 603.067C289.85 603.723 290.036 604.283 289.38 604.469C288.82 604.564 268.14 605.216 267.579 604.469C266.363 602.787 264.583 590.43 264.306 588.839C264.306 588.559 264.212 588.369 264.212 587.994C259.345 587.9 250.084 587.058 247.183 587.244C244.751 593.985 241.945 600.536 241.1 603.905C240.914 604.655 240.354 604.655 239.695 604.56C239.134 604.466 222.48 603.344 220.606 603.249C220.511 603.249 220.42 603.155 220.42 603.064C220.981 600.442 226.594 583.781 233.052 568.337L233.055 568.34ZM263.094 574.422C262.814 572.83 259.257 559.724 257.572 559.538C255.887 559.444 252.894 567.776 251.675 572.08C250.554 576.479 261.034 575.733 263.185 575.543C263.091 575.077 263.091 574.608 263.091 574.422H263.094Z" fill="#FECF0A"/>
<path d="M329.433 536.607C335.047 537.353 344.216 540.915 346.462 544.935C339.349 555.795 332.615 566.184 323.817 577.605C324.472 590.522 324.847 602.972 323.817 604.003C321.76 606.155 307.814 606.811 304.356 606.997C300.985 607.091 302.39 604.939 302.39 604.939C302.39 604.939 303.701 593.894 304.076 582.659C304.076 580.693 304.17 578.726 304.261 576.669C296.963 567.495 289.478 556.45 283.021 544.56C286.763 540.066 295.747 538.195 300.144 537.539C304.167 543.06 310.344 552.983 314.272 559.44C317.268 555.136 324.377 543.53 329.43 536.6L329.433 536.607Z" fill="#FECF0A"/>
<path d="M58.1998 510.177H58.1823C54.2404 509.311 50.8732 507.502 48.1226 504.772C44.0826 500.769 42.0644 495.672 42.0644 489.436C42.0644 486.435 42.4288 483.684 43.1611 481.202C44.3524 477.122 46.5283 473.757 49.6994 471.121C54.2194 467.332 60.0674 465.425 67.2784 465.425C71.1643 465.425 74.3388 465.81 76.8196 466.578L75.877 448.221L74.6471 424.171C70.8209 423.172 64.626 422.688 56.0695 422.688C38.2591 422.688 24.3171 427.767 14.2188 437.964C4.73729 447.527 0.00701904 460.051 0.00701904 475.58C0.00701904 480.831 0.54662 485.759 1.62232 490.375C1.62232 490.375 1.63984 490.393 1.63984 490.414C3.98745 500.572 8.94898 509.23 16.5069 516.427C26.6437 526.028 38.8548 530.837 53.1647 530.837C61.0485 530.837 67.5132 529.877 72.5518 527.931C73.1475 524.373 73.7642 520.945 74.3773 517.636C75.4741 512.69 76.2414 509.286 76.6864 507.439C72.6674 509.633 68.4347 510.748 63.9743 510.748C61.935 510.748 60.0113 510.555 58.2033 510.17L58.1998 510.177Z" fill="#436832"/>
<path d="M160.787 509.812C155.65 503.31 152.441 499.058 151.134 497.018C155.191 495.42 158.79 493.152 161.943 490.186C163.597 488.626 165.135 486.895 166.54 484.97C171.194 478.584 173.503 471.233 173.503 462.922C173.503 462.75 173.503 462.575 173.485 462.403C173.391 452.07 170.542 443.72 164.887 437.351C163.079 435.272 160.945 433.407 158.52 431.771C154.364 428.924 149.347 426.709 143.443 425.131C135.923 423.091 126.999 422.071 116.652 422.071C106.305 422.071 95.0924 422.727 82.7061 424.034C83.957 444.39 84.8225 460.921 85.285 473.617C85.3621 475.597 85.4181 477.483 85.4777 479.292C86.3817 501.88 87.0755 518.099 87.573 527.931H125.636L125.923 517.773L126.309 504.246H126.442C128.768 508.961 130.769 512.886 132.444 516.003C133.656 518.274 134.715 520.121 135.58 521.562C140.079 528.334 143.005 532.53 144.312 534.146C148.66 531.99 153.275 529.796 158.159 527.584C158.292 527.507 158.429 527.451 158.562 527.391C165.773 524.275 170.447 522.33 172.564 521.562C167.294 516.693 163.369 512.771 160.794 509.805L160.787 509.812ZM133.709 488.668C132.689 489.015 131.614 489.285 130.496 489.44C129.382 489.632 128.208 489.727 126.995 489.727L127.244 475.776L127.398 466.578C127.784 466.56 128.148 466.539 128.513 466.539C132.034 466.522 134.995 467.118 137.399 468.348C140.994 470.196 142.802 473.256 142.802 477.546C142.802 478.643 142.668 479.663 142.416 480.624C142.36 480.834 142.3 481.048 142.223 481.241C141.954 482.068 141.568 482.857 141.088 483.568C140.647 484.224 140.128 484.82 139.529 485.377C139.413 485.493 139.298 485.587 139.182 485.685C138.933 485.917 138.642 486.127 138.355 486.341C138.317 486.379 138.278 486.397 138.239 486.418C137.854 486.705 137.43 486.958 136.989 487.207C136.179 487.669 135.314 488.072 134.431 488.398C134.199 488.493 133.951 488.591 133.698 488.668H133.709Z" fill="#436832"/>
<path d="M267.649 464.692C266.861 457.072 264.997 450.32 262.092 444.432C260.168 440.488 257.765 436.948 254.919 433.772C250.322 428.693 244.975 425.016 238.879 422.748C233.994 420.96 228.609 420.035 222.743 420.035C222.473 420.035 222.204 420.035 221.955 420.052C221.398 420.052 220.84 420.07 220.28 420.091H220.262C215.262 420.301 210.644 421.188 206.394 422.744C200.22 424.995 194.817 428.651 190.22 433.712C189.144 434.904 188.125 436.156 187.182 437.463C186.527 438.329 185.914 439.233 185.356 440.155C181.145 446.91 178.527 454.99 177.508 464.398C177.182 467.381 177.028 470.497 177.028 473.75C177.028 479.982 177.644 485.833 178.892 491.28C179.084 492.128 179.295 492.973 179.526 493.821C181.506 501.305 184.719 508.021 189.123 514.005C197.701 525.586 208.896 531.38 222.743 531.38C229.436 531.38 235.532 529.957 241.016 527.107C246.556 524.223 251.479 519.911 255.806 514.138C263.998 503.131 268.115 489.664 268.115 473.75C268.115 470.613 267.961 467.591 267.653 464.689L267.649 464.692ZM231.93 499.787C229.621 504.099 227.025 506.58 224.141 507.176C223.679 507.253 223.22 507.292 222.736 507.31C219.18 507.31 216.177 504.845 213.735 499.92C213.465 499.381 213.216 498.823 212.964 498.266C212.732 497.709 212.522 497.151 212.308 496.573C212.116 496.033 211.944 495.476 211.769 494.897C211.674 494.571 211.482 493.877 211.289 492.896C210.732 490.607 210.479 488.241 210.479 485.798C210.479 485.472 210.479 485.142 210.497 484.816C210.553 481.391 210.921 478.447 211.632 476.004C211.65 475.927 211.671 475.871 211.688 475.793C213.402 470.059 216.92 467.076 222.228 466.886C222.267 466.869 222.323 466.869 222.382 466.869H222.554C222.649 466.851 222.747 466.851 222.862 466.851C222.957 466.851 223.055 466.851 223.132 466.869C223.15 466.851 223.171 466.851 223.188 466.869C231.44 467.023 235.574 473.294 235.574 485.668C235.574 487.382 235.42 489.075 235.112 490.747C234.747 492.843 234.131 494.904 233.265 496.941C232.862 497.901 232.417 498.844 231.92 499.787H231.93Z" fill="#436832"/>
<path d="M322.538 471.121C324.672 469.312 327.114 467.945 329.864 467.002C331.578 466.406 333.421 465.982 335.404 465.751C335.982 465.674 336.578 465.597 337.191 465.558C337.808 465.502 338.421 465.463 339.038 465.442C339.479 465.425 339.942 465.425 340.383 465.425C340.769 465.425 341.171 465.425 341.536 465.442C342.307 465.46 343.036 465.498 343.729 465.537C343.768 465.554 343.824 465.554 343.862 465.554C344.209 465.572 344.535 465.593 344.861 465.632C344.879 465.632 344.917 465.649 344.956 465.649C345.299 465.688 345.646 465.726 345.993 465.782C345.993 465.782 345.993 465.782 345.996 465.782C347.342 465.975 348.572 466.245 349.651 466.571V466.494L348.708 448.137L347.478 424.164C343.652 423.165 337.457 422.681 328.88 422.681C323.782 422.681 318.995 423.105 314.531 423.95C303.396 426.008 294.24 430.684 287.029 437.957C286.258 438.728 285.529 439.517 284.836 440.344C279.587 446.388 276.065 453.524 274.257 461.758C273.315 466.049 272.835 470.665 272.835 475.573C272.835 492.349 278.336 505.953 289.338 516.42C299.475 526.021 311.686 530.83 325.979 530.83C333.862 530.83 340.345 529.87 345.383 527.924C345.979 524.366 346.574 520.938 347.209 517.629C348.284 512.683 349.055 509.279 349.518 507.432C345.499 509.626 341.266 510.741 336.806 510.741C334.766 510.741 332.843 510.548 331.035 510.163H331.017C327.075 509.297 323.708 507.488 320.94 504.758C316.9 500.755 314.899 495.658 314.899 489.422C314.899 481.458 317.44 475.338 322.534 471.103L322.538 471.121Z" fill="#436832"/>
<path d="M433.012 433.772C427.974 428.213 422.031 424.325 415.184 422.152C410.78 420.746 405.99 420.035 400.836 420.035C400.664 420.035 400.489 420.035 400.335 420.052C399.872 420.035 399.413 420.052 398.951 420.07C386.431 420.473 376.217 425.033 368.313 433.712C360.022 442.851 355.618 455.263 355.177 470.925C355.138 471.868 355.12 472.789 355.12 473.753C355.12 489.664 359.16 503.075 367.237 514.005C375.797 525.586 386.988 531.38 400.836 531.38C414.683 531.38 425.283 525.628 433.899 514.141C442.112 503.135 446.208 489.667 446.208 473.753C446.208 456.84 441.804 443.506 433.016 433.772H433.012ZM400.836 507.313C399.221 507.313 397.721 506.812 396.354 505.792C394.68 504.579 393.18 502.616 391.834 499.924C389.679 495.556 388.604 490.842 388.604 485.801C388.604 474.738 391.757 468.523 398.068 467.139C398.415 467.062 398.779 467.006 399.144 466.967C399.259 466.929 399.354 466.929 399.469 466.929C399.525 466.911 399.603 466.89 399.662 466.911C399.988 466.872 400.335 466.855 400.682 466.855C400.913 466.855 401.123 466.855 401.337 466.872C401.453 466.872 401.586 466.89 401.701 466.89H401.719C409.701 467.237 413.681 473.508 413.681 485.668C413.681 490.537 412.469 495.251 410.027 499.791C407.374 504.793 404.294 507.313 400.832 507.313H400.836Z" fill="#436832"/>
<path opacity="0.71" d="M43.1576 481.202C42.4252 483.684 42.0608 486.436 42.0608 489.436C42.0608 495.668 44.0791 500.769 48.1191 504.772C50.8696 507.502 54.2369 509.311 58.1788 510.177C54.6959 510.159 45.3125 509.637 37.6389 502.826C33.7356 499.342 31.0796 494.957 29.5624 490.204C26.7943 481.679 27.6598 472.039 31.3319 464.71C38.4658 450.471 57.2187 442.756 75.877 448.221L76.8195 466.578C74.3388 465.807 71.1642 465.425 67.2784 465.425C60.0674 465.425 54.2194 467.328 49.6993 471.121C46.5248 473.757 44.3524 477.125 43.1611 481.202H43.1576Z" fill="#1B3D1C"/>
<path opacity="0.71" d="M349.928 466.578C349.833 466.56 349.756 466.522 349.658 466.501C347.486 465.866 344.774 465.502 341.543 465.442C341.179 465.425 340.772 465.425 340.39 465.425C339.949 465.425 339.486 465.425 339.045 465.442C335.698 465.558 332.661 466.098 329.928 467.079C327.275 468.001 324.906 469.368 322.811 471.121C317.713 475.355 315.176 481.472 315.176 489.44C315.176 495.672 317.194 500.772 321.234 504.775C323.985 507.506 327.352 509.314 331.294 510.18H331.024C327.352 510.124 318.235 509.469 310.754 502.83C299.811 493.096 298.732 476.123 304.447 464.713C306.812 460.02 310.428 456.017 314.892 452.977C323.894 446.857 336.319 444.589 348.722 448.147C348.817 448.165 348.894 448.203 348.992 448.224L349.935 466.581L349.928 466.578Z" fill="#1B3D1C"/>
<path opacity="0.71" d="M146.211 477.066C145.517 479.758 144.172 482.145 142.346 484.052C140.251 486.264 137.5 487.803 134.441 488.402C135.324 488.076 136.19 487.669 136.999 487.21C137.441 486.961 137.865 486.709 138.25 486.421C138.289 486.404 138.327 486.383 138.366 486.344C138.653 486.152 138.923 485.92 139.193 485.689C139.308 485.594 139.424 485.496 139.539 485.38C140.135 484.823 140.654 484.227 141.099 483.572C141.579 482.86 141.964 482.071 142.234 481.244C142.311 481.051 142.367 480.841 142.427 480.627C142.675 479.667 142.812 478.647 142.812 477.55C142.812 473.259 141.004 470.199 137.409 468.352C135.005 467.121 132.045 466.525 128.523 466.543C128.159 466.543 127.791 466.56 127.409 466.582H127.101C127.062 469.659 127.023 472.719 126.967 475.797C126.911 480.434 126.852 485.089 126.775 489.727L126.333 504.253H126.239L125.93 517.78L125.699 527.938H118.428L115.601 476.624L113.926 446.454C116.175 446.994 122.983 449.3 126.775 450.745C135.335 453.998 139.701 455.652 142.91 460.616C144.024 462.347 148.198 469.389 146.218 477.066H146.211Z" fill="#1B3D1C"/>
<path opacity="0.71" d="M172.56 521.569C170.444 522.34 165.77 524.282 158.559 527.398C158.425 527.454 158.289 527.514 158.156 527.591L139.865 495.497C143.078 494.957 149.711 493.457 156.54 488.724C157.77 487.876 159.021 486.916 160.251 485.84C170.272 477.01 172.809 465.965 173.482 462.403C173.499 462.575 173.499 462.75 173.499 462.922C173.499 471.233 171.19 478.584 166.537 484.97C165.132 486.895 163.594 488.626 161.94 490.186C158.786 493.148 155.188 495.42 151.13 497.018C152.437 499.058 155.65 503.31 160.784 509.812C163.362 512.774 167.283 516.7 172.553 521.569H172.56Z" fill="#1B3D1C"/>
<path opacity="0.71" d="M178.888 491.283C177.637 485.84 177.024 479.989 177.024 473.753C177.024 470.5 177.178 467.384 177.504 464.401L178.888 491.28V491.283Z" fill="#1B3D1C"/>
<path d="M236.741 491.283C235.76 493.478 234.646 495.363 233.49 496.941C234.316 494.922 234.912 492.861 235.259 490.782C235.567 489.089 235.721 487.396 235.721 485.664C235.721 473.119 231.625 466.848 223.451 466.848C223.374 466.848 223.279 466.848 223.202 466.865C223.185 466.848 223.164 466.848 223.146 466.865C223.03 466.865 222.936 466.865 222.838 466.883C222.743 466.883 222.666 466.865 222.568 466.865H222.396C222.203 466.848 222.011 466.848 221.818 466.848C216.681 466.848 213.318 469.831 211.702 475.793C211.685 475.87 211.664 475.927 211.646 476.004C211.012 478.447 210.665 481.391 210.627 484.816C210.609 485.142 210.609 485.472 210.609 485.797C210.609 488.798 210.973 491.262 211.303 492.896C211.496 493.877 211.688 494.571 211.783 494.897C211.955 495.476 212.13 496.033 212.322 496.573C214.208 502.055 217.207 505.616 218.899 507.366C216.59 506.864 212.918 505.729 209.341 502.844C205.935 500.113 203.167 496.282 201.187 491.876C195.763 480.042 195.823 464.208 203.167 455.319C203.706 454.685 210.36 446.854 219.632 447.968C226.825 448.834 231.208 454.548 232.978 456.837C240.073 466.052 241.633 480.235 236.748 491.276L236.741 491.283Z" fill="#1B3D1C"/>
<path opacity="0.71" d="M268.108 473.757C268.108 489.667 263.991 503.138 255.799 514.145C251.472 519.918 246.549 524.226 241.009 527.114C245.066 522.151 249.047 516.146 252.088 509.164C252.435 508.393 252.898 507.299 253.434 505.932C255.683 500.025 258.301 489.404 257.589 476.204C257.474 473.568 257.186 470.837 256.762 467.987C255.28 458.27 253.665 447.688 245.511 437.204C237.435 426.793 227.26 422.061 221.951 420.059C222.2 420.042 222.47 420.042 222.74 420.042C228.605 420.042 233.991 420.964 238.875 422.755C244.972 425.026 250.319 428.7 254.916 433.779C257.761 436.955 260.168 440.495 262.088 444.439C264.993 450.327 266.857 457.079 267.646 464.699C267.954 467.605 268.108 470.627 268.108 473.76V473.757Z" fill="#1B3D1C"/>
<path d="M415.608 491.283C414.627 493.478 413.513 495.363 412.357 496.941C413.839 493.285 414.589 489.534 414.589 485.664C414.589 473.119 410.493 466.848 402.318 466.848C402.108 466.848 401.915 466.848 401.722 466.886H401.705C401.589 466.886 401.456 466.869 401.341 466.869C401.13 466.851 400.917 466.851 400.685 466.851C400.338 466.851 399.991 466.869 399.666 466.907C399.61 466.89 399.532 466.907 399.473 466.925C399.357 466.925 399.263 466.925 399.147 466.964C398.783 467.002 398.415 467.058 398.071 467.135C392.339 468.52 389.473 474.735 389.473 485.797C389.473 490.589 390.394 494.031 390.647 494.897C392.069 499.92 394.473 503.538 396.358 505.788C396.876 506.423 397.357 506.941 397.763 507.366C395.454 506.864 391.782 505.729 388.204 502.844C375.587 492.741 371.953 467.517 382.031 455.319C382.57 454.685 389.224 446.854 398.495 447.968C405.689 448.834 410.072 454.548 411.842 456.837C418.937 466.052 420.496 480.235 415.612 491.276L415.608 491.283Z" fill="#1B3D1C"/>
<path opacity="0.71" d="M445.055 473.757C445.055 489.667 440.938 503.138 432.746 514.145C428.419 519.918 423.496 524.226 417.956 527.114C422.014 522.151 425.994 516.146 429.035 509.164C429.382 508.393 429.845 507.299 430.381 505.932C433.342 498.217 436.169 484.458 433.71 467.991C432.287 458.523 430.882 449.153 423.997 439.321C418.457 431.413 411.611 426.449 406.071 423.41C403.243 421.833 400.745 420.774 398.954 420.08C398.937 420.08 398.916 420.063 398.898 420.063C399.147 420.045 399.417 420.045 399.687 420.045C399.897 420.045 400.128 420.045 400.342 420.063C405.381 420.101 410.034 420.851 414.344 422.257C414.845 422.411 415.342 422.583 415.826 422.758C421.922 425.03 427.269 428.703 431.867 433.782C434.712 436.958 437.119 440.499 439.039 444.442C443.058 452.581 445.059 462.354 445.059 473.764L445.055 473.757Z" fill="#1B3D1C"/>
<g style="mix-blend-mode:multiply">
<path opacity="0.19" d="M75.8735 448.224L76.8161 466.581C74.3353 465.81 71.1608 465.428 67.275 465.428C60.0639 465.428 54.2159 467.332 49.6959 471.124C46.5213 473.76 44.3489 477.129 43.1576 481.206L29.5589 490.211L27.9226 491.287C27.9226 491.287 25.095 517.724 1.62934 490.421C1.62934 490.403 1.61182 490.382 1.61182 490.382C0.536122 485.766 -0.003479 480.838 -0.003479 475.587C-0.003479 460.058 4.72679 447.534 14.2083 437.971C24.3066 427.774 38.2486 422.695 56.059 422.695C64.619 422.695 70.8104 423.175 74.6367 424.178L75.8665 448.228L75.8735 448.224Z" fill="#231F20"/>
<path opacity="0.19" d="M173.503 462.922C173.503 471.233 171.194 478.584 166.54 484.97C165.135 486.895 163.597 488.626 161.943 490.186C160.118 489.723 158.31 489.226 156.54 488.724C151.27 487.224 146.347 485.608 142.346 484.048C141.905 483.894 141.498 483.722 141.095 483.568C141.575 482.857 141.961 482.068 142.23 481.241C142.308 481.048 142.364 480.838 142.423 480.624C142.672 479.663 142.809 478.643 142.809 477.546C142.809 473.256 141.001 470.196 137.406 468.348C135.002 467.118 132.041 466.522 128.52 466.539C128.155 466.539 127.787 466.557 127.405 466.578L127.251 475.776C127.157 475.758 127.059 475.776 126.964 475.793C123.292 476.235 119.136 478.314 119.136 478.314C119.136 478.314 117.808 477.602 115.597 476.621C109.136 473.792 95.2115 468.828 85.4006 473.561L85.285 473.617C84.8225 460.917 83.957 444.39 82.7061 424.034C95.0924 422.727 106.421 422.071 116.652 422.071C126.883 422.071 135.923 423.091 143.443 425.131C149.347 426.709 154.368 428.921 158.52 431.771C160.945 433.407 163.079 435.272 164.887 437.351C170.542 443.72 173.387 452.07 173.485 462.403C173.503 462.575 173.503 462.75 173.503 462.922Z" fill="#231F20"/>
<path opacity="0.19" d="M267.649 464.692L258.245 473.561C258.245 473.561 258.052 474.598 257.589 476.197C255.841 482.141 250.28 495.802 236.741 491.28C236.24 491.108 235.76 490.954 235.259 490.779C235.221 490.779 235.182 490.761 235.126 490.74C235.434 489.064 235.588 487.371 235.588 485.661C235.588 473.291 231.454 467.016 223.202 466.862C223.185 466.844 223.164 466.844 223.146 466.862C223.03 466.862 222.936 466.862 222.838 466.879C222.743 466.879 222.666 466.862 222.568 466.862H222.396C222.34 466.862 222.281 466.862 222.242 466.879C216.934 467.072 213.416 470.055 211.702 475.786C211.685 475.864 211.664 475.92 211.646 475.997C211.012 478.44 210.665 481.384 210.627 484.809H210.511C206.124 485.019 202.932 486.828 201.453 491.273C201.376 491.483 201.299 491.676 201.184 491.869C199.144 495.314 190.279 495.409 179.526 493.811C179.295 492.962 179.084 492.118 178.892 491.269C177.641 485.826 177.028 479.975 177.028 473.739C177.028 470.486 177.182 467.37 177.508 464.387C178.527 454.979 181.141 446.896 185.356 440.145C185.914 439.223 186.53 438.318 187.182 437.453C188.125 436.145 189.144 434.894 190.22 433.702C194.817 428.64 200.22 424.984 206.394 422.734C210.644 421.174 215.259 420.291 220.262 420.08H220.28C220.837 420.063 221.394 420.042 221.955 420.042C222.204 420.024 222.473 420.024 222.743 420.024C228.609 420.024 233.994 420.946 238.879 422.737C244.975 425.009 250.322 428.682 254.919 433.761C257.765 436.937 260.172 440.478 262.092 444.421C264.997 450.31 266.861 457.061 267.649 464.682V464.692Z" fill="#231F20"/>
<path opacity="0.19" d="M348.985 448.224L349.928 466.581C349.833 466.564 349.756 466.525 349.658 466.504V466.581C347.486 465.908 344.774 465.523 341.543 465.446C341.179 465.428 340.772 465.428 340.39 465.428C339.949 465.428 339.486 465.428 339.045 465.446C335.698 465.561 332.661 466.101 329.928 467.083C329.889 467.065 329.871 467.044 329.871 467.006C325.793 461.562 320.159 455.172 314.889 452.977C312.562 452.017 310.313 451.863 308.273 452.96C300.214 457.31 282.404 460.503 274.268 461.772C276.076 453.538 279.594 446.398 284.846 440.358C285.54 439.531 286.269 438.742 287.04 437.971C294.251 430.698 303.407 426.022 314.542 423.964C319.002 423.116 323.792 422.695 328.89 422.695C337.468 422.695 343.663 423.175 347.489 424.178L348.719 448.151C348.814 448.168 348.891 448.207 348.989 448.228L348.985 448.224Z" fill="#231F20"/>
<path opacity="0.19" d="M415.184 422.152C414.897 422.191 414.606 422.208 414.337 422.247C411.376 422.555 408.604 422.958 406.067 423.4C395.317 425.247 388.604 427.845 388.604 427.845C388.604 427.845 372.16 439.062 371.119 455.435C370.618 462.957 363.138 467.826 355.177 470.925C355.618 455.263 360.023 442.851 368.313 433.712C376.218 425.033 386.431 420.476 398.951 420.07C398.933 420.07 398.912 420.052 398.895 420.052C399.144 420.035 399.413 420.035 399.683 420.035C399.893 420.035 400.125 420.035 400.338 420.052C400.493 420.035 400.664 420.035 400.839 420.035C405.994 420.035 410.784 420.746 415.188 422.152H415.184Z" fill="#231F20"/>
</g>
<g style="mix-blend-mode:screen" opacity="0.78">
<path d="M42.4673 433.018C46.8227 431.276 50.8381 430.428 54.272 430.081C57.7128 429.734 60.5755 429.892 62.8145 430.137C63.3751 430.207 63.8972 430.274 64.3877 430.333C64.8713 430.417 65.3198 430.509 65.7297 430.589C66.1397 430.67 66.5181 430.747 66.858 430.814C67.1944 430.894 67.4957 430.985 67.762 431.059C68.8272 431.357 69.3422 431.532 69.3282 431.581C69.3142 431.63 68.7746 431.557 67.6954 431.346C67.4256 431.294 67.1208 431.234 66.7844 431.168C66.4445 431.118 66.0661 431.066 65.6561 431.006C65.2462 430.947 64.8012 430.88 64.3176 430.81C63.8341 430.768 63.3155 430.719 62.7584 430.67C60.5404 430.498 57.7198 430.396 54.3385 430.775C50.9643 431.153 47.0259 432.005 42.7476 433.719C40.6278 434.613 38.3257 435.721 36.0552 437.176C33.7952 438.637 31.5527 440.4 29.5029 442.437C27.4496 444.47 25.575 446.763 24.0158 449.206C22.446 451.642 21.1531 454.197 20.1439 456.711C19.1138 459.22 18.4586 461.713 17.9715 463.984C17.8629 464.555 17.7543 465.113 17.6527 465.653C17.5686 466.196 17.509 466.725 17.4389 467.237C17.2778 468.257 17.2462 469.217 17.1761 470.087C17.1586 470.304 17.1446 470.518 17.1306 470.725C17.1306 470.932 17.1271 471.135 17.1236 471.331C17.1201 471.724 17.1131 472.095 17.1096 472.442C17.1096 472.789 17.0885 473.112 17.1061 473.406C17.1201 473.701 17.1306 473.974 17.1411 474.216C17.1586 474.703 17.1691 475.078 17.1761 475.334C17.1796 475.59 17.1761 475.727 17.1621 475.727C17.1481 475.727 17.1271 475.597 17.0991 475.341C17.0745 475.085 17.036 474.71 16.9869 474.223C16.9659 473.981 16.9414 473.708 16.9134 473.413C16.8818 473.115 16.8923 472.793 16.8818 472.446C16.8748 472.099 16.8678 471.724 16.8608 471.328C16.8608 471.131 16.8538 470.925 16.8503 470.718C16.8608 470.507 16.8713 470.294 16.8783 470.076C16.9274 469.196 16.9379 468.229 17.078 467.198C17.1376 466.683 17.1867 466.147 17.2637 465.597C17.3583 465.05 17.4565 464.485 17.5546 463.907C18.0066 461.604 18.6303 459.073 19.6429 456.521C20.631 453.962 21.9134 451.358 23.4832 448.873C25.0424 446.38 26.931 444.035 29.0053 441.953C31.0796 439.868 33.3537 438.055 35.6522 436.559C37.9578 435.069 40.2984 433.933 42.4603 433.025L42.4673 433.018Z" fill="#D7DF23"/>
</g>
<g style="mix-blend-mode:screen" opacity="0.78">
<path d="M90.4778 431.238C90.3341 429.622 90.201 428.111 90.0748 426.712C90.4918 426.677 90.9017 426.642 91.3082 426.607C91.592 426.586 91.8723 426.569 92.1456 426.551C92.6957 426.52 93.2248 426.495 93.7329 426.477C94.7525 426.446 95.6986 426.446 96.5676 426.46C98.302 426.499 99.7351 426.611 100.863 426.733C103.127 426.989 104.199 427.259 104.189 427.343C104.175 427.441 103.081 427.343 100.825 427.217C99.6965 427.158 98.2775 427.105 96.5605 427.108C95.7021 427.115 94.7701 427.133 93.7609 427.182C93.2564 427.207 92.7343 427.238 92.1947 427.273C91.9249 427.294 91.6481 427.315 91.3678 427.34C91.2276 427.354 91.0875 427.364 90.9438 427.378L90.8877 427.385H90.8842C90.9929 428.556 91.1085 429.818 91.2346 431.171C91.7847 437.26 92.5241 445.925 93.1022 453.072C93.3895 456.644 93.6383 459.837 93.7995 462.14C93.8801 463.29 93.9396 464.219 93.9747 464.857C94.0062 465.498 94.0132 465.852 93.9887 465.852C93.9642 465.852 93.9046 465.505 93.824 464.871C93.7434 464.236 93.6348 463.311 93.5086 462.165C93.2564 459.872 92.927 456.686 92.5696 453.121C91.8583 445.988 91.0314 437.33 90.4813 431.241L90.4778 431.238Z" fill="#D7DF23"/>
</g>
<g style="mix-blend-mode:screen" opacity="0.78">
<path d="M209.393 520.658C205.777 519.105 202.971 517.082 200.882 515.084C198.783 513.083 197.403 511.106 196.436 509.486C196.201 509.076 195.984 508.691 195.777 508.333C195.595 507.965 195.441 507.614 195.294 507.295C195.15 506.976 195.017 506.682 194.898 506.419C194.792 506.149 194.715 505.897 194.638 505.68C194.344 504.8 194.228 504.362 194.277 504.348C194.326 504.33 194.537 504.737 194.912 505.571C195.006 505.778 195.104 506.016 195.227 506.275C195.36 506.528 195.511 506.808 195.672 507.113C195.833 507.418 196.001 507.751 196.198 508.105C196.411 508.449 196.643 508.817 196.888 509.209C197.893 510.762 199.284 512.655 201.359 514.579C203.423 516.5 206.166 518.449 209.684 519.96C211.457 520.672 213.475 521.338 215.686 521.688C217.894 522.028 220.266 522.091 222.645 521.786C225.021 521.485 227.403 520.833 229.604 519.855C231.808 518.891 233.847 517.647 235.627 516.273C237.428 514.912 238.9 513.346 240.136 511.863C240.434 511.484 240.729 511.113 241.009 510.752C241.275 510.38 241.514 510.005 241.755 509.651C242.256 508.953 242.614 508.238 242.978 507.607C243.069 507.45 243.153 507.296 243.241 507.145C243.315 506.987 243.385 506.836 243.451 506.686C243.588 506.388 243.717 506.107 243.84 505.848C243.956 505.585 244.089 505.347 244.169 505.115C244.257 504.884 244.334 504.674 244.404 504.484C244.692 503.727 244.86 503.31 244.884 503.317C244.909 503.324 244.79 503.755 244.548 504.533C244.488 504.73 244.418 504.943 244.345 505.182C244.275 505.42 244.152 505.666 244.047 505.935C243.935 506.205 243.816 506.493 243.686 506.798C243.623 506.952 243.556 507.106 243.486 507.267C243.406 507.422 243.322 507.583 243.237 507.744C242.891 508.393 242.547 509.125 242.057 509.847C241.822 510.212 241.587 510.597 241.328 510.983C241.047 511.355 240.76 511.737 240.466 512.129C239.243 513.661 237.771 515.281 235.956 516.693C234.162 518.123 232.099 519.417 229.853 520.43C227.614 521.457 225.175 522.147 222.733 522.48C220.287 522.813 217.841 522.764 215.567 522.424C213.29 522.074 211.212 521.394 209.39 520.665L209.393 520.658Z" fill="#D7DF23"/>
</g>
<g style="mix-blend-mode:screen" opacity="0.78">
<path d="M292.296 495.991C291.307 493.884 290.558 491.841 290.004 489.902C289.86 489.418 289.755 488.935 289.633 488.465C289.573 488.23 289.513 487.995 289.457 487.767C289.412 487.533 289.363 487.305 289.317 487.073C289.226 486.618 289.139 486.169 289.051 485.731C288.988 485.289 288.925 484.855 288.862 484.43C288.389 481.034 288.427 478.191 288.62 475.962C288.648 475.401 288.732 474.882 288.788 474.398C288.855 473.915 288.893 473.466 288.981 473.056C289.058 472.646 289.128 472.274 289.191 471.934C289.251 471.594 289.317 471.293 289.394 471.026C289.671 469.964 289.832 469.449 289.885 469.463C289.934 469.477 289.871 470.013 289.685 471.086C289.633 471.352 289.591 471.657 289.549 471.997C289.503 472.337 289.454 472.709 289.401 473.115C289.335 473.522 289.314 473.967 289.268 474.447C289.233 474.928 289.163 475.439 289.156 475.993C289.033 478.198 289.051 480.995 289.552 484.325C289.619 484.742 289.685 485.167 289.752 485.601C289.839 486.032 289.93 486.471 290.025 486.919C290.071 487.144 290.12 487.368 290.169 487.599C290.228 487.827 290.288 488.055 290.347 488.283C290.47 488.742 290.579 489.219 290.722 489.692C291.276 491.595 292.019 493.597 292.986 495.661C293.956 497.726 295.214 499.927 296.812 502.066C298.399 504.211 300.309 506.296 302.471 508.179C304.629 510.061 307.033 511.74 309.549 513.121C312.061 514.506 314.686 515.592 317.254 516.364C317.576 516.458 317.892 516.56 318.21 516.651C318.533 516.732 318.852 516.809 319.167 516.886C319.482 516.963 319.798 517.04 320.11 517.117C320.425 517.177 320.737 517.236 321.045 517.296C322.278 517.555 323.48 517.71 324.626 517.836C326.921 518.081 328.995 518.193 330.73 518.316C332.464 518.432 333.862 518.561 334.822 518.677C335.302 518.733 335.674 518.789 335.923 518.831C336.175 518.873 336.305 518.901 336.301 518.912C336.298 518.944 335.768 518.894 334.805 518.828C333.841 518.761 332.447 518.681 330.709 518.607C328.974 518.53 326.897 518.463 324.581 518.253C323.424 518.144 322.205 518.008 320.954 517.766C320.639 517.71 320.323 517.654 320.004 517.598C319.689 517.524 319.37 517.45 319.048 517.377C318.726 517.303 318.403 517.226 318.077 517.149C317.755 517.061 317.429 516.963 317.103 516.872C314.489 516.122 311.816 515.049 309.251 513.665C306.683 512.283 304.226 510.597 302.015 508.698C299.801 506.798 297.846 504.681 296.216 502.5C294.58 500.323 293.291 498.08 292.303 495.977L292.296 495.991Z" fill="#D7DF23"/>
</g>
<g style="mix-blend-mode:screen" opacity="0.78">
<path d="M340.758 428.307C337.159 427.894 335.506 427.533 335.53 427.326C335.555 427.119 337.251 427.144 340.846 427.557C341.108 427.589 341.385 427.62 341.676 427.655C341.715 428.213 341.76 428.816 341.806 429.443C341.837 429.962 341.872 430.502 341.907 431.045C341.974 432.135 342.033 433.239 342.075 434.231C342.163 436.212 342.195 437.736 342.093 437.744C341.991 437.751 341.785 436.243 341.56 434.273C341.448 433.288 341.333 432.188 341.228 431.101C341.136 430.123 341.049 429.163 340.972 428.335C340.898 428.328 340.828 428.321 340.758 428.311V428.307Z" fill="#D7DF23"/>
</g>
<g style="mix-blend-mode:screen" opacity="0.78">
<path d="M415.034 439.959C412.995 436.632 410.689 434.108 408.432 432.352C406.176 430.589 404.011 429.566 402.241 428.956C400.465 428.353 399.077 428.142 398.156 428.041C397.696 427.974 397.35 427.967 397.118 427.936C396.887 427.908 396.771 427.883 396.771 427.855C396.771 427.827 396.884 427.806 397.118 427.781C397.35 427.764 397.704 427.725 398.173 427.746C399.116 427.76 400.552 427.89 402.402 428.447C404.242 429.008 406.502 430.014 408.853 431.799C410.027 432.689 411.211 433.782 412.364 435.072C413.51 436.369 414.634 437.863 415.672 439.559C416.723 441.249 417.721 443.212 418.653 445.332C419.578 447.457 420.423 449.749 421.187 452.112C421.951 454.474 422.588 456.921 423.096 459.354C423.601 461.786 424.004 464.198 424.239 466.504C424.75 471.114 424.74 475.271 424.575 478.244C424.48 479.73 424.386 480.925 424.277 481.745C424.179 482.566 424.112 483.018 424.088 483.014C424.063 483.014 424.077 482.555 424.126 481.731C424.186 480.908 424.232 479.712 424.284 478.23C424.358 475.264 424.284 471.135 423.709 466.568C423.44 464.282 423.012 461.891 422.483 459.487C421.954 457.082 421.299 454.664 420.524 452.329C419.75 449.994 418.899 447.73 417.977 445.634C417.049 443.541 416.057 441.617 415.027 439.959H415.034Z" fill="#D7DF23"/>
</g>
<path d="M58.1998 510.177H58.1823C54.2404 509.311 50.8732 507.502 48.1226 504.772C44.0826 500.769 42.0644 495.672 42.0644 489.436C42.0644 486.435 42.4288 483.684 43.1611 481.202C44.3524 477.122 46.5283 473.757 49.6994 471.121C54.2194 467.332 60.0674 465.425 67.2784 465.425C71.1643 465.425 74.3388 465.81 76.8196 466.578L75.877 448.221L74.6471 424.171C70.8209 423.172 64.626 422.688 56.0695 422.688C38.2591 422.688 24.3171 427.767 14.2188 437.964C4.73729 447.527 0.00701904 460.051 0.00701904 475.58C0.00701904 480.831 0.54662 485.759 1.62232 490.375C1.62232 490.375 1.63984 490.393 1.63984 490.414C3.98745 500.572 8.94898 509.23 16.5069 516.427C26.6437 526.028 38.8548 530.837 53.1647 530.837C61.0485 530.837 67.5132 529.877 72.5518 527.931C73.1475 524.373 73.7642 520.945 74.3773 517.636C75.4741 512.69 76.2414 509.286 76.6864 507.439C72.6674 509.633 68.4347 510.748 63.9743 510.748C61.935 510.748 60.0113 510.555 58.2033 510.17L58.1998 510.177Z" fill="#222916"/>
<path d="M160.787 509.812C155.65 503.31 152.441 499.058 151.134 497.018C155.191 495.42 158.79 493.152 161.943 490.186C163.597 488.626 165.135 486.895 166.54 484.97C171.194 478.584 173.503 471.233 173.503 462.922C173.503 462.75 173.503 462.575 173.485 462.403C173.391 452.07 170.542 443.72 164.887 437.351C163.079 435.272 160.945 433.407 158.52 431.771C154.364 428.924 149.347 426.709 143.443 425.131C135.923 423.091 126.999 422.071 116.652 422.071C106.305 422.071 95.0924 422.727 82.7061 424.034C83.957 444.39 84.8225 460.921 85.285 473.617C85.3621 475.597 85.4181 477.483 85.4777 479.292C86.3817 501.88 87.0755 518.099 87.573 527.931H125.636L125.923 517.773L126.309 504.246H126.442C128.768 508.961 130.769 512.886 132.444 516.003C133.656 518.274 134.715 520.121 135.58 521.562C140.079 528.334 143.005 532.53 144.312 534.146C148.66 531.99 153.275 529.796 158.159 527.584C158.292 527.507 158.429 527.451 158.562 527.391C165.773 524.275 170.447 522.33 172.564 521.562C167.294 516.693 163.369 512.771 160.794 509.805L160.787 509.812ZM133.709 488.668C132.689 489.015 131.614 489.285 130.496 489.44C129.382 489.632 128.208 489.727 126.995 489.727L127.244 475.776L127.398 466.578C127.784 466.56 128.148 466.539 128.513 466.539C132.034 466.522 134.995 467.118 137.399 468.348C140.994 470.196 142.802 473.256 142.802 477.546C142.802 478.643 142.668 479.663 142.416 480.624C142.36 480.834 142.3 481.048 142.223 481.241C141.954 482.068 141.568 482.857 141.088 483.568C140.647 484.224 140.128 484.82 139.529 485.377C139.413 485.493 139.298 485.587 139.182 485.685C138.933 485.917 138.642 486.127 138.355 486.341C138.317 486.379 138.278 486.397 138.239 486.418C137.854 486.705 137.43 486.958 136.989 487.207C136.179 487.669 135.314 488.072 134.431 488.398C134.199 488.493 133.951 488.591 133.698 488.668H133.709Z" fill="#222916"/>
<path d="M267.649 464.692C266.861 457.072 264.997 450.32 262.092 444.432C260.168 440.488 257.765 436.948 254.919 433.772C250.322 428.693 244.975 425.016 238.879 422.748C233.994 420.96 228.609 420.035 222.743 420.035C222.473 420.035 222.204 420.035 221.955 420.052C221.398 420.052 220.84 420.07 220.28 420.091H220.262C215.262 420.301 210.644 421.188 206.394 422.744C200.22 424.995 194.817 428.651 190.22 433.712C189.144 434.904 188.125 436.156 187.182 437.463C186.527 438.329 185.914 439.233 185.356 440.155C181.145 446.91 178.527 454.99 177.508 464.398C177.182 467.381 177.028 470.497 177.028 473.75C177.028 479.982 177.644 485.833 178.892 491.28C179.084 492.128 179.295 492.973 179.526 493.821C181.506 501.305 184.719 508.021 189.123 514.005C197.701 525.586 208.896 531.38 222.743 531.38C229.436 531.38 235.532 529.957 241.016 527.107C246.556 524.223 251.479 519.911 255.806 514.138C263.998 503.131 268.115 489.664 268.115 473.75C268.115 470.613 267.961 467.591 267.653 464.689L267.649 464.692ZM231.93 499.787C229.621 504.099 227.025 506.58 224.141 507.176C223.679 507.253 223.22 507.292 222.736 507.31C219.18 507.31 216.177 504.845 213.735 499.92C213.465 499.381 213.216 498.823 212.964 498.266C212.732 497.709 212.522 497.151 212.308 496.573C212.116 496.033 211.944 495.476 211.769 494.897C211.674 494.571 211.482 493.877 211.289 492.896C210.732 490.607 210.479 488.241 210.479 485.798C210.479 485.472 210.479 485.142 210.497 484.816C210.553 481.391 210.921 478.447 211.632 476.004C211.65 475.927 211.671 475.871 211.688 475.793C213.402 470.059 216.92 467.076 222.228 466.886C222.267 466.869 222.323 466.869 222.382 466.869H222.554C222.649 466.851 222.747 466.851 222.862 466.851C222.957 466.851 223.055 466.851 223.132 466.869C223.15 466.851 223.171 466.851 223.188 466.869C231.44 467.023 235.574 473.294 235.574 485.668C235.574 487.382 235.42 489.075 235.112 490.747C234.747 492.843 234.131 494.904 233.265 496.941C232.862 497.901 232.417 498.844 231.92 499.787H231.93Z" fill="#222916"/>
<path d="M322.538 471.121C324.672 469.312 327.114 467.945 329.864 467.002C331.578 466.406 333.421 465.982 335.404 465.751C335.982 465.674 336.578 465.597 337.191 465.558C337.808 465.502 338.421 465.463 339.038 465.442C339.479 465.425 339.942 465.425 340.383 465.425C340.769 465.425 341.171 465.425 341.536 465.442C342.307 465.46 343.036 465.498 343.729 465.537C343.768 465.554 343.824 465.554 343.862 465.554C344.209 465.572 344.535 465.593 344.861 465.632C344.879 465.632 344.917 465.649 344.956 465.649C345.299 465.688 345.646 465.726 345.993 465.782C345.993 465.782 345.993 465.782 345.996 465.782C347.342 465.975 348.572 466.245 349.651 466.571V466.494L348.708 448.137L347.478 424.164C343.652 423.165 337.457 422.681 328.88 422.681C323.782 422.681 318.995 423.105 314.531 423.95C303.396 426.008 294.24 430.684 287.029 437.957C286.258 438.728 285.529 439.517 284.836 440.344C279.587 446.388 276.065 453.524 274.257 461.758C273.315 466.049 272.835 470.665 272.835 475.573C272.835 492.349 278.336 505.953 289.338 516.42C299.475 526.021 311.686 530.83 325.979 530.83C333.862 530.83 340.345 529.87 345.383 527.924C345.979 524.366 346.574 520.938 347.209 517.629C348.284 512.683 349.055 509.279 349.518 507.432C345.499 509.626 341.266 510.741 336.806 510.741C334.766 510.741 332.843 510.548 331.035 510.163H331.017C327.075 509.297 323.708 507.488 320.94 504.758C316.9 500.755 314.899 495.658 314.899 489.422C314.899 481.458 317.44 475.338 322.534 471.103L322.538 471.121Z" fill="#222916"/>
<path d="M433.012 433.772C427.974 428.213 422.031 424.325 415.184 422.152C410.78 420.746 405.99 420.035 400.836 420.035C400.664 420.035 400.489 420.035 400.335 420.052C399.872 420.035 399.413 420.052 398.951 420.07C386.431 420.473 376.217 425.033 368.313 433.712C360.022 442.851 355.618 455.263 355.177 470.925C355.138 471.868 355.12 472.789 355.12 473.753C355.12 489.664 359.16 503.075 367.237 514.005C375.797 525.586 386.988 531.38 400.836 531.38C414.683 531.38 425.283 525.628 433.899 514.141C442.112 503.135 446.208 489.667 446.208 473.753C446.208 456.84 441.804 443.506 433.016 433.772H433.012ZM400.836 507.313C399.221 507.313 397.721 506.812 396.354 505.792C394.68 504.579 393.18 502.616 391.834 499.924C389.679 495.556 388.604 490.842 388.604 485.801C388.604 474.738 391.757 468.523 398.068 467.139C398.415 467.062 398.779 467.006 399.144 466.967C399.259 466.929 399.354 466.929 399.469 466.929C399.525 466.911 399.603 466.89 399.662 466.911C399.988 466.872 400.335 466.855 400.682 466.855C400.913 466.855 401.123 466.855 401.337 466.872C401.453 466.872 401.586 466.89 401.701 466.89H401.719C409.701 467.237 413.681 473.508 413.681 485.668C413.681 490.537 412.469 495.251 410.027 499.791C407.374 504.793 404.294 507.313 400.832 507.313H400.836Z" fill="#222916"/>
<path d="M43.1576 481.202C42.4252 483.684 42.0608 486.436 42.0608 489.436C42.0608 495.668 44.0791 500.769 48.1191 504.772C50.8696 507.502 54.2369 509.311 58.1788 510.177C54.6959 510.159 45.3125 509.637 37.6389 502.826C33.7356 499.342 31.0796 494.957 29.5624 490.204C26.7943 481.679 27.6598 472.039 31.3319 464.71C38.4658 450.471 57.2187 442.756 75.877 448.221L76.8195 466.578C74.3388 465.807 71.1642 465.425 67.2784 465.425C60.0674 465.425 54.2194 467.328 49.6993 471.121C46.5248 473.757 44.3524 477.125 43.1611 481.202H43.1576Z" fill="#FDCD0B"/>
<path d="M349.928 466.578C349.833 466.56 349.756 466.522 349.658 466.501C347.486 465.866 344.774 465.502 341.543 465.442C341.179 465.425 340.772 465.425 340.39 465.425C339.949 465.425 339.486 465.425 339.045 465.442C335.698 465.558 332.661 466.098 329.928 467.079C327.275 468.001 324.906 469.368 322.811 471.121C317.713 475.355 315.176 481.472 315.176 489.44C315.176 495.672 317.194 500.772 321.234 504.775C323.985 507.506 327.352 509.314 331.294 510.18H331.024C327.352 510.124 318.235 509.469 310.754 502.83C299.811 493.096 298.732 476.123 304.447 464.713C306.812 460.02 310.428 456.017 314.892 452.977C323.894 446.857 336.319 444.589 348.722 448.147C348.817 448.165 348.894 448.203 348.992 448.224L349.935 466.581L349.928 466.578Z" fill="#FDCD0B"/>
<path d="M146.211 477.066C145.517 479.758 144.172 482.145 142.346 484.052C140.251 486.264 137.5 487.803 134.441 488.402C135.324 488.076 136.19 487.669 136.999 487.21C137.441 486.961 137.865 486.709 138.25 486.421C138.289 486.404 138.327 486.383 138.366 486.344C138.653 486.152 138.923 485.92 139.193 485.689C139.308 485.594 139.424 485.496 139.539 485.38C140.135 484.823 140.654 484.227 141.099 483.572C141.579 482.86 141.964 482.071 142.234 481.244C142.311 481.051 142.367 480.841 142.427 480.627C142.675 479.667 142.812 478.647 142.812 477.55C142.812 473.259 141.004 470.199 137.409 468.352C135.005 467.121 132.045 466.525 128.523 466.543C128.159 466.543 127.791 466.56 127.409 466.582H127.101C127.062 469.659 127.023 472.719 126.967 475.797C126.911 480.434 126.852 485.089 126.775 489.727L126.333 504.253H126.239L125.93 517.78L125.699 527.938H118.428L115.601 476.624L113.926 446.454C116.175 446.994 122.983 449.3 126.775 450.745C135.335 453.998 139.701 455.652 142.91 460.616C144.024 462.347 148.198 469.389 146.218 477.066H146.211Z" fill="#FDCD0B"/>
<path d="M172.56 521.569C170.444 522.34 165.77 524.282 158.559 527.398C158.425 527.454 158.289 527.514 158.156 527.591L139.865 495.497C143.078 494.957 149.711 493.457 156.54 488.724C157.77 487.876 159.021 486.916 160.251 485.84C170.272 477.01 172.809 465.965 173.482 462.403C173.499 462.575 173.499 462.75 173.499 462.922C173.499 471.233 171.19 478.584 166.537 484.97C165.132 486.895 163.594 488.626 161.94 490.186C158.786 493.148 155.188 495.42 151.13 497.018C152.437 499.058 155.65 503.31 160.784 509.812C163.362 512.774 167.283 516.7 172.553 521.569H172.56Z" fill="#FDCD0B"/>
<path opacity="0.71" d="M178.888 491.283C177.637 485.84 177.024 479.989 177.024 473.753C177.024 470.5 177.178 467.384 177.504 464.401L178.888 491.28V491.283Z" fill="#1B3D1C"/>
<path d="M236.741 491.283C235.76 493.478 234.646 495.363 233.49 496.941C234.316 494.922 234.912 492.861 235.259 490.782C235.567 489.089 235.721 487.396 235.721 485.664C235.721 473.119 231.625 466.848 223.451 466.848C223.374 466.848 223.279 466.848 223.202 466.865C223.185 466.848 223.164 466.848 223.146 466.865C223.03 466.865 222.936 466.865 222.838 466.883C222.743 466.883 222.666 466.865 222.568 466.865H222.396C222.203 466.848 222.011 466.848 221.818 466.848C216.681 466.848 213.318 469.831 211.702 475.793C211.685 475.87 211.664 475.927 211.646 476.004C211.012 478.447 210.665 481.391 210.627 484.816C210.609 485.142 210.609 485.472 210.609 485.797C210.609 488.798 210.973 491.262 211.303 492.896C211.496 493.877 211.688 494.571 211.783 494.897C211.955 495.476 212.13 496.033 212.322 496.573C214.208 502.055 217.207 505.616 218.899 507.366C216.59 506.864 212.918 505.729 209.341 502.844C205.935 500.113 203.167 496.282 201.187 491.876C195.763 480.042 195.823 464.208 203.167 455.319C203.706 454.685 210.36 446.854 219.632 447.968C226.825 448.834 231.208 454.548 232.978 456.837C240.073 466.052 241.633 480.235 236.748 491.276L236.741 491.283Z" fill="#FDCD0B"/>
<path d="M268.108 473.757C268.108 489.667 263.991 503.138 255.799 514.145C251.472 519.918 246.549 524.226 241.009 527.114C245.066 522.151 249.047 516.146 252.088 509.164C252.435 508.393 252.898 507.299 253.434 505.932C255.683 500.025 258.301 489.404 257.589 476.204C257.474 473.568 257.186 470.837 256.762 467.987C255.28 458.27 253.665 447.688 245.511 437.204C237.435 426.793 227.26 422.061 221.951 420.059C222.2 420.042 222.47 420.042 222.74 420.042C228.605 420.042 233.991 420.964 238.875 422.755C244.972 425.026 250.319 428.7 254.916 433.779C257.761 436.955 260.168 440.495 262.088 444.439C264.993 450.327 266.857 457.079 267.646 464.699C267.954 467.605 268.108 470.627 268.108 473.76V473.757Z" fill="#FDCD0B"/>
<path d="M415.608 491.283C414.627 493.478 413.513 495.363 412.357 496.941C413.839 493.285 414.589 489.534 414.589 485.664C414.589 473.119 410.493 466.848 402.318 466.848C402.108 466.848 401.915 466.848 401.722 466.886H401.705C401.589 466.886 401.456 466.869 401.341 466.869C401.13 466.851 400.917 466.851 400.685 466.851C400.338 466.851 399.991 466.869 399.666 466.907C399.61 466.89 399.532 466.907 399.473 466.925C399.357 466.925 399.263 466.925 399.147 466.964C398.783 467.002 398.415 467.058 398.071 467.135C392.339 468.52 389.473 474.735 389.473 485.797C389.473 490.589 390.394 494.031 390.647 494.897C392.069 499.92 394.473 503.538 396.358 505.788C396.876 506.423 397.357 506.941 397.763 507.366C395.454 506.864 391.782 505.729 388.204 502.844C375.587 492.741 371.953 467.517 382.031 455.319C382.57 454.685 389.224 446.854 398.495 447.968C405.689 448.834 410.072 454.548 411.842 456.837C418.937 466.052 420.496 480.235 415.612 491.276L415.608 491.283Z" fill="#FDCD0B"/>
<path d="M446.975 473.757C446.975 489.667 442.858 503.138 434.666 514.145C430.339 519.918 425.416 524.226 419.876 527.114C423.934 522.151 427.914 516.146 430.955 509.164C431.302 508.393 431.765 507.299 432.301 505.932C435.262 498.217 438.089 484.458 435.63 467.991C434.207 458.523 432.802 449.153 425.917 439.321C420.377 431.413 413.531 426.449 407.991 423.41C405.163 421.833 402.665 420.774 400.874 420.08C400.857 420.08 400.836 420.063 400.818 420.063C401.067 420.045 401.337 420.045 401.607 420.045C401.817 420.045 402.048 420.045 402.262 420.063C407.301 420.101 411.954 420.851 416.264 422.257C416.765 422.411 417.262 422.583 417.746 422.758C423.842 425.03 429.189 428.703 433.787 433.782C436.632 436.958 439.039 440.499 440.959 444.442C444.978 452.581 446.979 462.354 446.979 473.764L446.975 473.757Z" fill="#FDCD0B"/>
<g style="mix-blend-mode:multiply">
<path opacity="0.19" d="M75.8735 448.224L76.8161 466.581C74.3353 465.81 71.1608 465.428 67.275 465.428C60.0639 465.428 54.2159 467.332 49.6959 471.124C46.5213 473.76 44.3489 477.129 43.1576 481.206L29.5589 490.211L27.9226 491.287C27.9226 491.287 25.095 517.724 1.62934 490.421C1.62934 490.403 1.61182 490.382 1.61182 490.382C0.536122 485.766 -0.003479 480.838 -0.003479 475.587C-0.003479 460.058 4.72679 447.534 14.2083 437.971C24.3066 427.774 38.2486 422.695 56.059 422.695C64.619 422.695 70.8104 423.175 74.6367 424.178L75.8665 448.228L75.8735 448.224Z" fill="#231F20"/>
<path opacity="0.19" d="M173.503 462.922C173.503 471.233 171.194 478.584 166.54 484.97C165.135 486.895 163.597 488.626 161.943 490.186C160.118 489.723 158.31 489.226 156.54 488.724C151.27 487.224 146.347 485.608 142.346 484.048C141.905 483.894 141.498 483.722 141.095 483.568C141.575 482.857 141.961 482.068 142.23 481.241C142.308 481.048 142.364 480.838 142.423 480.624C142.672 479.663 142.809 478.643 142.809 477.546C142.809 473.256 141.001 470.196 137.406 468.348C135.002 467.118 132.041 466.522 128.52 466.539C128.155 466.539 127.787 466.557 127.405 466.578L127.251 475.776C127.157 475.758 127.059 475.776 126.964 475.793C123.292 476.235 119.136 478.314 119.136 478.314C119.136 478.314 117.808 477.602 115.597 476.621C109.136 473.792 95.2115 468.828 85.4006 473.561L85.285 473.617C84.8225 460.917 83.957 444.39 82.7061 424.034C95.0924 422.727 106.421 422.071 116.652 422.071C126.883 422.071 135.923 423.091 143.443 425.131C149.347 426.709 154.368 428.921 158.52 431.771C160.945 433.407 163.079 435.272 164.887 437.351C170.542 443.72 173.387 452.07 173.485 462.403C173.503 462.575 173.503 462.75 173.503 462.922Z" fill="#231F20"/>
<path opacity="0.19" d="M267.649 464.692L258.245 473.561C258.245 473.561 258.052 474.598 257.589 476.197C255.841 482.141 250.28 495.802 236.741 491.28C236.24 491.108 235.76 490.954 235.259 490.779C235.221 490.779 235.182 490.761 235.126 490.74C235.434 489.064 235.588 487.371 235.588 485.661C235.588 473.291 231.454 467.016 223.202 466.862C223.185 466.844 223.164 466.844 223.146 466.862C223.03 466.862 222.936 466.862 222.838 466.879C222.743 466.879 222.666 466.862 222.568 466.862H222.396C222.34 466.862 222.281 466.862 222.242 466.879C216.934 467.072 213.416 470.055 211.702 475.786C211.685 475.864 211.664 475.92 211.646 475.997C211.012 478.44 210.665 481.384 210.627 484.809H210.511C206.124 485.019 202.932 486.828 201.453 491.273C201.376 491.483 201.299 491.676 201.184 491.869C199.144 495.314 190.279 495.409 179.526 493.811C179.295 492.962 179.084 492.118 178.892 491.269C177.641 485.826 177.028 479.975 177.028 473.739C177.028 470.486 177.182 467.37 177.508 464.387C178.527 454.979 181.141 446.896 185.356 440.145C185.914 439.223 186.53 438.318 187.182 437.453C188.125 436.145 189.144 434.894 190.22 433.702C194.817 428.64 200.22 424.984 206.394 422.734C210.644 421.174 215.259 420.291 220.262 420.08H220.28C220.837 420.063 221.394 420.042 221.955 420.042C222.204 420.024 222.473 420.024 222.743 420.024C228.609 420.024 233.994 420.946 238.879 422.737C244.975 425.009 250.322 428.682 254.919 433.761C257.765 436.937 260.172 440.478 262.092 444.421C264.997 450.31 266.861 457.061 267.649 464.682V464.692Z" fill="#231F20"/>
<path opacity="0.19" d="M348.985 448.224L349.928 466.581C349.833 466.564 349.756 466.525 349.658 466.504V466.581C347.486 465.908 344.774 465.523 341.543 465.446C341.179 465.428 340.772 465.428 340.39 465.428C339.949 465.428 339.486 465.428 339.045 465.446C335.698 465.561 332.661 466.101 329.928 467.083C329.889 467.065 329.871 467.044 329.871 467.006C325.793 461.562 320.159 455.172 314.889 452.977C312.562 452.017 310.313 451.863 308.273 452.96C300.214 457.31 282.404 460.503 274.268 461.772C276.076 453.538 279.594 446.398 284.846 440.358C285.54 439.531 286.269 438.742 287.04 437.971C294.251 430.698 303.407 426.022 314.542 423.964C319.002 423.116 323.792 422.695 328.89 422.695C337.468 422.695 343.663 423.175 347.489 424.178L348.719 448.151C348.814 448.168 348.891 448.207 348.989 448.228L348.985 448.224Z" fill="#231F20"/>
<path opacity="0.19" d="M415.184 422.152C414.897 422.191 414.606 422.208 414.337 422.247C411.376 422.555 408.604 422.958 406.067 423.4C395.317 425.247 388.604 427.845 388.604 427.845C388.604 427.845 372.16 439.062 371.119 455.435C370.618 462.957 363.138 467.826 355.177 470.925C355.618 455.263 360.023 442.851 368.313 433.712C376.218 425.033 386.431 420.476 398.951 420.07C398.933 420.07 398.912 420.052 398.895 420.052C399.144 420.035 399.413 420.035 399.683 420.035C399.893 420.035 400.125 420.035 400.338 420.052C400.493 420.035 400.664 420.035 400.839 420.035C405.994 420.035 410.784 420.746 415.188 422.152H415.184Z" fill="#231F20"/>
</g>
<g style="mix-blend-mode:screen" opacity="0.78">
<path d="M42.4673 433.018C46.8227 431.276 50.8381 430.428 54.272 430.081C57.7128 429.734 60.5755 429.892 62.8145 430.137C63.3751 430.207 63.8972 430.274 64.3877 430.333C64.8713 430.417 65.3198 430.509 65.7297 430.589C66.1397 430.67 66.5181 430.747 66.858 430.814C67.1944 430.894 67.4957 430.985 67.762 431.059C68.8272 431.357 69.3422 431.532 69.3282 431.581C69.3142 431.63 68.7746 431.557 67.6954 431.346C67.4256 431.294 67.1208 431.234 66.7844 431.168C66.4445 431.118 66.0661 431.066 65.6561 431.006C65.2462 430.947 64.8012 430.88 64.3176 430.81C63.8341 430.768 63.3155 430.719 62.7584 430.67C60.5404 430.498 57.7198 430.396 54.3385 430.775C50.9643 431.153 47.0259 432.005 42.7476 433.719C40.6278 434.613 38.3257 435.721 36.0552 437.176C33.7952 438.637 31.5527 440.4 29.5029 442.437C27.4496 444.47 25.575 446.763 24.0158 449.206C22.446 451.642 21.1531 454.197 20.1439 456.711C19.1138 459.22 18.4586 461.713 17.9715 463.984C17.8629 464.555 17.7543 465.113 17.6527 465.653C17.5686 466.196 17.509 466.725 17.4389 467.237C17.2778 468.257 17.2462 469.217 17.1761 470.087C17.1586 470.304 17.1446 470.518 17.1306 470.725C17.1306 470.932 17.1271 471.135 17.1236 471.331C17.1201 471.724 17.1131 472.095 17.1096 472.442C17.1096 472.789 17.0885 473.112 17.1061 473.406C17.1201 473.701 17.1306 473.974 17.1411 474.216C17.1586 474.703 17.1691 475.078 17.1761 475.334C17.1796 475.59 17.1761 475.727 17.1621 475.727C17.1481 475.727 17.1271 475.597 17.0991 475.341C17.0745 475.085 17.036 474.71 16.9869 474.223C16.9659 473.981 16.9414 473.708 16.9134 473.413C16.8818 473.115 16.8923 472.793 16.8818 472.446C16.8748 472.099 16.8678 471.724 16.8608 471.328C16.8608 471.131 16.8538 470.925 16.8503 470.718C16.8608 470.507 16.8713 470.294 16.8783 470.076C16.9274 469.196 16.9379 468.229 17.078 467.198C17.1376 466.683 17.1867 466.147 17.2637 465.597C17.3583 465.05 17.4565 464.485 17.5546 463.907C18.0066 461.604 18.6303 459.073 19.6429 456.521C20.631 453.962 21.9134 451.358 23.4832 448.873C25.0424 446.38 26.931 444.035 29.0053 441.953C31.0796 439.868 33.3537 438.055 35.6522 436.559C37.9578 435.069 40.2984 433.933 42.4603 433.025L42.4673 433.018Z" fill="#D7DF23"/>
</g>
<g style="mix-blend-mode:screen" opacity="0.78">
<path d="M90.4778 431.238C90.3341 429.622 90.201 428.111 90.0748 426.712C90.4918 426.677 90.9017 426.642 91.3082 426.607C91.592 426.586 91.8723 426.569 92.1456 426.551C92.6957 426.52 93.2248 426.495 93.7329 426.477C94.7525 426.446 95.6986 426.446 96.5676 426.46C98.302 426.499 99.7351 426.611 100.863 426.733C103.127 426.989 104.199 427.259 104.189 427.343C104.175 427.441 103.081 427.343 100.825 427.217C99.6965 427.158 98.2775 427.105 96.5605 427.108C95.7021 427.115 94.7701 427.133 93.7609 427.182C93.2564 427.207 92.7343 427.238 92.1947 427.273C91.9249 427.294 91.6481 427.315 91.3678 427.34C91.2276 427.354 91.0875 427.364 90.9438 427.378L90.8877 427.385H90.8842C90.9929 428.556 91.1085 429.818 91.2346 431.171C91.7847 437.26 92.5241 445.925 93.1022 453.072C93.3895 456.644 93.6383 459.837 93.7995 462.14C93.8801 463.29 93.9396 464.219 93.9747 464.857C94.0062 465.498 94.0132 465.852 93.9887 465.852C93.9642 465.852 93.9046 465.505 93.824 464.871C93.7434 464.236 93.6348 463.311 93.5086 462.165C93.2564 459.872 92.927 456.686 92.5696 453.121C91.8583 445.988 91.0314 437.33 90.4813 431.241L90.4778 431.238Z" fill="#D7DF23"/>
</g>
<g style="mix-blend-mode:screen" opacity="0.78">
<path d="M209.393 520.658C205.777 519.105 202.971 517.082 200.882 515.084C198.783 513.083 197.403 511.106 196.436 509.486C196.201 509.076 195.984 508.691 195.777 508.333C195.595 507.965 195.441 507.614 195.294 507.295C195.15 506.976 195.017 506.682 194.898 506.419C194.792 506.149 194.715 505.897 194.638 505.68C194.344 504.8 194.228 504.362 194.277 504.348C194.326 504.33 194.537 504.737 194.912 505.571C195.006 505.778 195.104 506.016 195.227 506.275C195.36 506.528 195.511 506.808 195.672 507.113C195.833 507.418 196.001 507.751 196.198 508.105C196.411 508.449 196.643 508.817 196.888 509.209C197.893 510.762 199.284 512.655 201.359 514.579C203.423 516.5 206.166 518.449 209.684 519.96C211.457 520.672 213.475 521.338 215.686 521.688C217.894 522.028 220.266 522.091 222.645 521.786C225.021 521.485 227.403 520.833 229.604 519.855C231.808 518.891 233.847 517.647 235.627 516.273C237.428 514.912 238.9 513.346 240.136 511.863C240.434 511.484 240.729 511.113 241.009 510.752C241.275 510.38 241.514 510.005 241.755 509.651C242.256 508.953 242.614 508.238 242.978 507.607C243.069 507.45 243.153 507.296 243.241 507.145C243.315 506.987 243.385 506.836 243.451 506.686C243.588 506.388 243.717 506.107 243.84 505.848C243.956 505.585 244.089 505.347 244.169 505.115C244.257 504.884 244.334 504.674 244.404 504.484C244.692 503.727 244.86 503.31 244.884 503.317C244.909 503.324 244.79 503.755 244.548 504.533C244.488 504.73 244.418 504.943 244.345 505.182C244.275 505.42 244.152 505.666 244.047 505.935C243.935 506.205 243.816 506.493 243.686 506.798C243.623 506.952 243.556 507.106 243.486 507.267C243.406 507.422 243.322 507.583 243.237 507.744C242.891 508.393 242.547 509.125 242.057 509.847C241.822 510.212 241.587 510.597 241.328 510.983C241.047 511.355 240.76 511.737 240.466 512.129C239.243 513.661 237.771 515.281 235.956 516.693C234.162 518.123 232.099 519.417 229.853 520.43C227.614 521.457 225.175 522.147 222.733 522.48C220.287 522.813 217.841 522.764 215.567 522.424C213.29 522.074 211.212 521.394 209.39 520.665L209.393 520.658Z" fill="#D7DF23"/>
</g>
<g style="mix-blend-mode:screen" opacity="0.78">
<path d="M292.296 495.991C291.307 493.884 290.558 491.841 290.004 489.902C289.86 489.418 289.755 488.935 289.633 488.465C289.573 488.23 289.513 487.995 289.457 487.767C289.412 487.533 289.363 487.305 289.317 487.073C289.226 486.618 289.139 486.169 289.051 485.731C288.988 485.289 288.925 484.855 288.862 484.43C288.389 481.034 288.427 478.191 288.62 475.962C288.648 475.401 288.732 474.882 288.788 474.398C288.855 473.915 288.893 473.466 288.981 473.056C289.058 472.646 289.128 472.274 289.191 471.934C289.251 471.594 289.317 471.293 289.394 471.026C289.671 469.964 289.832 469.449 289.885 469.463C289.934 469.477 289.871 470.013 289.685 471.086C289.633 471.352 289.591 471.657 289.549 471.997C289.503 472.337 289.454 472.709 289.401 473.115C289.335 473.522 289.314 473.967 289.268 474.447C289.233 474.928 289.163 475.439 289.156 475.993C289.033 478.198 289.051 480.995 289.552 484.325C289.619 484.742 289.685 485.167 289.752 485.601C289.839 486.032 289.93 486.471 290.025 486.919C290.071 487.144 290.12 487.368 290.169 487.599C290.228 487.827 290.288 488.055 290.347 488.283C290.47 488.742 290.579 489.219 290.722 489.692C291.276 491.595 292.019 493.597 292.986 495.661C293.956 497.726 295.214 499.927 296.812 502.066C298.399 504.211 300.309 506.296 302.471 508.179C304.629 510.061 307.033 511.74 309.549 513.121C312.061 514.506 314.686 515.592 317.254 516.364C317.576 516.458 317.892 516.56 318.21 516.651C318.533 516.732 318.852 516.809 319.167 516.886C319.482 516.963 319.798 517.04 320.11 517.117C320.425 517.177 320.737 517.236 321.045 517.296C322.278 517.555 323.48 517.71 324.626 517.836C326.921 518.081 328.995 518.193 330.73 518.316C332.464 518.432 333.862 518.561 334.822 518.677C335.302 518.733 335.674 518.789 335.923 518.831C336.175 518.873 336.305 518.901 336.301 518.912C336.298 518.944 335.768 518.894 334.805 518.828C333.841 518.761 332.447 518.681 330.709 518.607C328.974 518.53 326.897 518.463 324.581 518.253C323.424 518.144 322.205 518.008 320.954 517.766C320.639 517.71 320.323 517.654 320.004 517.598C319.689 517.524 319.37 517.45 319.048 517.377C318.726 517.303 318.403 517.226 318.077 517.149C317.755 517.061 317.429 516.963 317.103 516.872C314.489 516.122 311.816 515.049 309.251 513.665C306.683 512.283 304.226 510.597 302.015 508.698C299.801 506.798 297.846 504.681 296.216 502.5C294.58 500.323 293.291 498.08 292.303 495.977L292.296 495.991Z" fill="#D7DF23"/>
</g>
<g style="mix-blend-mode:screen" opacity="0.78">
<path d="M340.758 428.307C337.159 427.894 335.506 427.533 335.53 427.326C335.555 427.119 337.251 427.144 340.846 427.557C341.108 427.589 341.385 427.62 341.676 427.655C341.715 428.213 341.76 428.816 341.806 429.443C341.837 429.962 341.872 430.502 341.907 431.045C341.974 432.135 342.033 433.239 342.075 434.231C342.163 436.212 342.195 437.736 342.093 437.744C341.991 437.751 341.785 436.243 341.56 434.273C341.448 433.288 341.333 432.188 341.228 431.101C341.136 430.123 341.049 429.163 340.972 428.335C340.898 428.328 340.828 428.321 340.758 428.311V428.307Z" fill="#D7DF23"/>
</g>
<g style="mix-blend-mode:screen" opacity="0.78">
<path d="M415.034 439.959C412.995 436.632 410.689 434.108 408.432 432.352C406.176 430.589 404.011 429.566 402.241 428.956C400.465 428.353 399.077 428.142 398.156 428.041C397.696 427.974 397.35 427.967 397.118 427.936C396.887 427.908 396.771 427.883 396.771 427.855C396.771 427.827 396.884 427.806 397.118 427.781C397.35 427.764 397.704 427.725 398.173 427.746C399.116 427.76 400.552 427.89 402.402 428.447C404.242 429.008 406.502 430.014 408.853 431.799C410.027 432.689 411.211 433.782 412.364 435.072C413.51 436.369 414.634 437.863 415.672 439.559C416.723 441.249 417.721 443.212 418.653 445.332C419.578 447.457 420.423 449.749 421.187 452.112C421.951 454.474 422.588 456.921 423.096 459.354C423.601 461.786 424.004 464.198 424.239 466.504C424.75 471.114 424.74 475.271 424.575 478.244C424.48 479.73 424.386 480.925 424.277 481.745C424.179 482.566 424.112 483.018 424.088 483.014C424.063 483.014 424.077 482.555 424.126 481.731C424.186 480.908 424.232 479.712 424.284 478.23C424.358 475.264 424.284 471.135 423.709 466.568C423.44 464.282 423.012 461.891 422.483 459.487C421.954 457.082 421.299 454.664 420.524 452.329C419.75 449.994 418.899 447.73 417.977 445.634C417.049 443.541 416.057 441.617 415.027 439.959H415.034Z" fill="#D7DF23"/>
</g>
</svg>
